<?xml version="1.0" encoding="utf-8"?>
<!-- Generator: Adobe Illustrator 15.0.0, SVG Export Plug-In . SVG Version: 6.00 Build 0)  -->
<!DOCTYPE svg PUBLIC "-//W3C//DTD SVG 1.1//EN" "http://www.w3.org/Graphics/SVG/1.1/DTD/svg11.dtd">
<svg version="1.1" xmlns="http://www.w3.org/2000/svg" xmlns:xlink="http://www.w3.org/1999/xlink" x="0px" y="0px" width="1024px"
	 height="600px" viewBox="0 0 1024 600" enable-background="new 0 0 1024 600" xml:space="preserve">
<g id="Layer_1">
	<path fill="#0C0C0C" d="M1021.707,504.383l-0.005,6.754l-1.056-0.069l1.674-20.14l-9.534,1.188l-0.849,18.354l-2.514-0.173
		l3.354-32.811l-15.196,0.722l-0.839,17.736l-0.275-0.291l-6.229-4.733l-5.619,3.977l0.778-6.854l-15.791,0.555l-0.931,18.904
		l-0.812-0.057l1.731-35.228l-10.852-3.193l-0.275,26.439c-0.688-1.102-1.734-2.858-1.906-3.614
		c-0.26-1.142-0.039-11.092-0.039-11.092l-3.636-0.854l-0.567,5.853l-2.93-4.463l-4.751-1.371c0,0-4.925,0.095-5.554,2.629
		c-0.631,2.537-3.52,4.791-3.52,4.791l-0.84-3.106l-2.72,0.4l-1.58,4.313l-4.958,3.354l-3.268,1.669c0,0-3.551,0.037-6.313,0.046
		l0.207-3.899l-4.262-0.733l-1.917-4.433l0.803-7.904l-3.515-0.461l-1.229,12.076l-3.932-0.484c0,0-10.052-2.291-15.127-2.693
		c-1.811-0.145-2.979-0.047-2.818,0.48c0.312,1.039-0.938,6.645-2.224,11.838l-1.125-11.203l-5.812-3.381l-13.09-5.68l-9.744,3.267
		l2.252-23.628l-11.43,1.234l-1.039,17.969c-3.249,0.174-6.186,0.471-6.186,0.471l-3.312-0.088l0.253-12.75l-2.986-0.104
		l-0.169,8.382l-2.089,4.339l-3.694,0.122l0.843-14.258l-7.654-3.092l-0.89,26.155l-1.229-0.626l-8.104,3.521l1.02-37.945
		l-27.215,2.897l-2.027,41.021l-5.161-0.354l3.646-28.521l-20.812,0.693l-1.689,26.528l-0.133-0.01l0.039-15.146l-2.312-3.341
		l-5.258-5.393l-7.795,7.427l0.065-4.458l-2.309-4.094l-5.274-6.587l-7.122,8.202l1.778-27.059l-8.627-3.386l-2.001,51.165
		l-6.831-0.47l3.194-47.812l-31.16-4.316l-2.524,33.772c-1.881-0.256-3.396-0.463-3.396-0.463l-3.548-1.779l-5.353-3.374
		l-1.345-3.617l-3.142-0.758l-1.348,2.305c0,0-3.158-2.243-3.609-4.351c-0.452-2.104-6.347-3.022-6.347-3.022l-5.938,0.271
		L640,459.557v-4.8l-4.616,0.044c0,0-0.929,8.076-1.392,8.956c-0.465,0.88-3.723,3.294-3.723,3.294l-1.072,4.97l-0.327,4.003
		l-0.845,8.068l-0.288-0.021l-0.115-23.787l-4.048-4.681l-9.207-7.627l-13.776,10.123l-0.486,15.827l-3.26-2.036l-18.104-8.336
		l-3.103,1.146l2.075-27.332l-13.964-1.265l-1.794,17.291l-3.677-2.539l-5.485,4.277l-1.806-3.47l1.343-9.757l-3.697-0.464
		l-1.021-11.672l-29.555,3.854l-29.908-3.854l-1.042,11.768l-2.913,0.368l1.327,9.757l-2.021,3.929l-6.149-4.736l-2.735,1.868
		l-1.701-16.62l-13.801,1.265l2.052,27.332l-3.062-1.146l-17.89,8.336l-3.221,2.036l-0.48-15.827l-13.613-10.123l-9.099,7.627
		l-3.998,4.681l-0.117,23.788l-0.281,0.021l-0.834-8.068l-0.321-4.003l-1.062-4.97c0,0-3.218-2.414-3.677-3.294
		c-0.457-0.88-1.376-8.956-1.376-8.956l-4.562-0.044v4.8l-4.083-3.074l-5.867-0.271c0,0-5.826,0.919-6.272,3.023
		c-0.447,2.104-3.567,4.35-3.567,4.35l-1.333-2.305l-3.103,0.758l-1.327,3.617l-5.289,3.374l-3.504,1.779
		c0,0-1.495,0.207-3.352,0.463l-2.496-33.772l-30.79,4.317l3.156,47.812l-6.75,0.47l-1.977-51.165l-8.524,3.386l1.761,27.059
		l-7.038-8.202l-5.213,6.587l-2.278,4.094l0.062,4.458l-7.703-7.427l-5.193,5.394l-2.283,3.34l0.04,15.146l-0.132,0.011
		l-1.669-26.529l-20.566-0.693l3.603,28.521l-5.102,0.354l-2.004-41.021l-26.89-2.897l1.008,37.945l-8.009-3.521l-1.215,0.626
		l-0.878-26.154l-7.563,3.091l0.832,14.258l-3.652-0.122l-2.064-4.339l-0.165-8.382l-2.955,0.104l0.251,12.75l-3.271,0.088
		c0,0-2.9-0.297-6.11-0.471l-1.028-17.969l-11.293-1.234L188,480.809l-9.628-3.267l-12.934,5.68l-5.739,3.381l-1.114,11.203
		c-1.271-5.192-2.504-10.799-2.195-11.838c0.157-0.527-0.999-0.625-2.786-0.479c-5.014,0.401-14.946,2.692-14.946,2.692
		l-3.884,0.484l-1.215-12.076l-3.471,0.461l0.793,7.904l-1.896,4.433l-4.209,0.733l0.204,3.899
		c-2.731-0.009-6.238-0.046-6.238-0.046l-3.229-1.669l-4.901-3.354l-1.561-4.313l-2.687-0.399l-0.828,3.105
		c0,0-2.854-2.254-3.477-4.791c-0.622-2.534-5.488-2.629-5.488-2.629l-4.693,1.371l-2.894,4.463l-0.563-5.854l-3.592,0.854
		c0,0,0.219,9.95-0.038,11.092c-0.169,0.757-1.204,2.516-1.884,3.614l-0.272-26.439l-10.721,3.193l1.712,35.228l-0.806,0.057
		l-0.919-18.904l-15.604-0.555l0.774,6.854l-5.552-3.978l-6.154,4.733l-0.273,0.291l-0.829-17.736l-15.015-0.722l3.316,32.811
		l-2.483,0.173l-0.838-18.354l-9.419-1.188l1.652,20.139l-1.042,0.07l-0.004-6.754l-8.293-6.163l-5.82,4.572l-2.585,2.812
		L3.5,512.314L0,512.559v25.95l518.074-26.081L1024,537.594v-34.895L1021.707,504.383z"/>
	
		<linearGradient id="SVGID_1_" gradientUnits="userSpaceOnUse" x1="164.0044" y1="50.1616" x2="164.0044" y2="217.7134" gradientTransform="matrix(1 0 0 -1 348 584)">
		<stop  offset="0" style="stop-color:#001621"/>
		<stop  offset="1" style="stop-color:#223640"/>
	</linearGradient>
	<path fill="url(#SVGID_1_)" d="M107.479,524.508c6.78-7.729,32.862-20.201,32.862-20.201s24.864-17.838,38.577-22.646
		c13.713-4.812,39.818-8.688,39.818-8.688l15.058-20.104l-1.26-22.735l-1.721-4.376l-1.374-33.383l2.424-3.174l0.088-22.914
		l3.121,23.441l3,2.114l2.203,32.501l-2.475,3.478l1.335,24.09c0,0,38.834,38.305,45.972,40.596
		c7.138,2.29,33.688,1.694,39.405-2.219c5.717-3.912,3.378-11.993,4.331-17.159c0.952-5.165,13.944-13.34,13.944-13.34h16.48
		c0,0,3.793,7.202,8.416,11.506s15.037,13.016,15.037,13.016l11.417-1.846v-48.049c0,0,5.391-31.106,17.67-31.508
		c12.121-0.397,19.249,12.295,20.139,25.11c1.212,17.524,4.938,60.867,4.938,60.867l5.809-2.731c0,0,0.44-9.832,1.362-14.482
		c0.922-4.648,9.19-3.18,9.659-0.688c0.469,2.487,0,13.325,0,13.325l4.236,3.688c0,0,4.49-46.047,4.974-50.537
		c0.482-4.491,3.522-5.123,3.761-3.56c0.49,3.206,2.642,22.021,4.647,22.011c2.009-0.01,1.946-27.123,2.222-31.354
		c0.276-4.229,2.62-2.188,2.62-2.188s3.066,19.688,5.56,19.812c2.489,0.121,2.877-49.803,3.675-54.035
		c0.796-4.234,6.185-2.586,6.185-2.586s3.394,50.834,5.63,50.982c2.239,0.148,4.456-53.907,5.298-57.389
		c0.846-3.482,2.81-1.425,2.81-1.425s10.855,51.377,11.138,55.845c0.28,4.466,5.516,1.926,6.093-1.547
		c0.577-3.478,4.055-41.727,5.245-45.836c1.192-4.111,4.749-0.691,4.749-0.691s2.578,41.62,5.167,42.119
		c2.589,0.5,1.43-23.73,1.96-27.312c0.531-3.582,2.733,0,2.733,0l7.853,43.902l5.615,34.895h11.927c0,0-2.682,1.512,0.521,5.207
		c3.201,3.697,14.088-0.534,14.088-0.534l0.231-45.646l12.041,0.515c0,0,1.153,40.441,2.699,45.698
		c1.548,5.258,17.238,2.704,18.582-1.645c1.346-4.353,0-51.078,0-51.078h20.291l3.868,47.48l5.426,3.598
		c0,0,6.938,10.198,11.624,10.215c4.688,0.016,10.775-8.604,10.775-8.604s6.187,10.019,12.153,10.246
		c5.966,0.23,8.764-1.645,8.764-1.645v-8.604h5.433l4.075,4.941h9.419c0,0-0.037-55.812,4.104-58.955c4.139-3.143,29.247,0,29.247,0
		s-2.37-6.014-0.245-8.572c2.125-2.561,17.787-4.702,20.332-0.526c2.547,4.174,4.757,71.717,4.757,71.717l10.87-1.479
		c0,0,0.311-3.134,2.014-3.519c1.703-0.384,14.99-1.398,14.99-1.398l24.293-3.815c0,0,6.6-0.783,8.973,2.645
		c2.373,3.43-1.828,12.021,0,14.796c1.828,2.775,17.354,0,17.354,0l2.802-10.886h10.826c0,0,2.624,7.527,0,10.886
		c-2.623,3.358,33.529,9.583,33.529,9.583s12.231,5.164,14.01,6.781c7.017,6.396,14.798,17.336,14.798,17.336l-374.826-15.472
		c0,0-284.384,9.12-286.394,8.593c-2.009-0.528-154.274,4.413-154.274,4.413S100.497,532.471,107.479,524.508z"/>
	
		<linearGradient id="SVGID_2_" gradientUnits="userSpaceOnUse" x1="164" y1="-15.9995" x2="164" y2="81.2505" gradientTransform="matrix(1 0 0 -1 348 584)">
		<stop  offset="0" style="stop-color:#0A5027"/>
		<stop  offset="1" style="stop-color:#282718"/>
	</linearGradient>
	<path fill="url(#SVGID_2_)" d="M1024,600v-77.102c-150.142-12.869-320.889-20.148-502-20.148c-189.204,0-367.096,7.944-522,21.907
		V600H1024z"/>
	<g id="Layer_3">
	</g>
	<g id="Layer_2">
	</g>
	<g id="Layer_2_1_" display="none">
		<rect x="400" y="436.875" display="inline" fill="#F9FF83" width="3.125" height="5.125"/>
		<rect x="408.25" y="436.875" display="inline" fill="#F9FF83" width="3.125" height="5.125"/>
		<rect x="408.25" y="446.75" display="inline" fill="#F9FF83" width="3.125" height="5.125"/>
		<rect x="408.25" y="468.75" display="inline" fill="#F9FF83" width="3.125" height="5.125"/>
		<rect x="415.5" y="468.75" display="inline" fill="#F9FF83" width="3.125" height="5.125"/>
		<rect x="427.125" y="468.75" display="inline" fill="#F9FF83" width="3.125" height="5.125"/>
		<rect x="480.938" y="468.75" display="inline" fill="#F9FF83" width="3.125" height="5.125"/>
		<rect x="531.271" y="454.75" display="inline" fill="#F9FF83" width="3.125" height="5.125"/>
		<rect x="522.604" y="479.017" display="inline" fill="#F9FF83" width="3.125" height="5.125"/>
		<rect x="447.25" y="473.875" display="inline" fill="#F9FF83" width="3.125" height="5.125"/>
		<rect x="336.5" y="473.875" display="inline" fill="#F9FF83" width="3.125" height="5.125"/>
		<rect x="348.5" y="473.875" display="inline" fill="#F9FF83" width="3.125" height="5.125"/>
		<rect x="353.75" y="473.875" display="inline" fill="#F9FF83" width="3.125" height="5.125"/>
		<rect x="359.625" y="486.125" display="inline" fill="#F9FF83" width="3.125" height="5.125"/>
		<rect x="584.875" y="444.188" display="inline" fill="#F9FF83" width="3.125" height="5.125"/>
		<rect x="590.625" y="444.188" display="inline" fill="#F9FF83" width="3.125" height="5.125"/>
		<rect x="584.875" y="465.188" display="inline" fill="#F9FF83" width="3.125" height="5.125"/>
		<rect x="584.875" y="455.521" display="inline" fill="#F9FF83" width="3.125" height="5.125"/>
		<rect x="619.375" y="461.854" display="inline" fill="#F9FF83" width="3.125" height="5.125"/>
		<rect x="625.375" y="461.854" display="inline" fill="#F9FF83" width="3.125" height="5.125"/>
		<rect x="630.541" y="452.188" display="inline" fill="#F9FF83" width="3.125" height="5.125"/>
		<rect x="625.375" y="443.521" display="inline" fill="#F9FF83" width="3.125" height="5.125"/>
		<rect x="630.541" y="434.521" display="inline" fill="#F9FF83" width="3.125" height="5.125"/>
		<rect x="712.208" y="481.579" display="inline" fill="#F9FF83" width="3.125" height="5.125"/>
		<rect x="721.208" y="481.579" display="inline" fill="#F9FF83" width="3.125" height="5.125"/>
		<rect x="733.208" y="470.312" display="inline" fill="#F9FF83" width="3.125" height="5.125"/>
		<rect x="733.208" y="437.083" display="inline" fill="#F9FF83" width="3.125" height="5.125"/>
		<rect x="753.604" y="429.774" display="inline" fill="#F9FF83" width="3.125" height="5.125"/>
		<rect x="715.333" y="455.521" display="inline" fill="#F9FF83" width="3.125" height="5.125"/>
		<rect x="817.604" y="489.604" display="inline" fill="#F9FF83" width="3.125" height="5.125"/>
		<rect x="802.604" y="492.167" display="inline" fill="#F9FF83" width="3.125" height="5.125"/>
		<rect x="740.375" y="470.312" display="inline" fill="#F9FF83" width="3.125" height="5.125"/>
	</g>
</g>
<g id="Layer_2_2_">
</g>
</svg>
