<?xml version="1.0" encoding="UTF-8" standalone="no"?>
<!-- Generator: Adobe Illustrator 15.0.0, SVG Export Plug-In . SVG Version: 6.00 Build 0)  -->
<svg id="Layer_1" xmlns:rdf="http://www.w3.org/1999/02/22-rdf-syntax-ns#" xmlns="http://www.w3.org/2000/svg" enable-background="new 0 0 1024 600" xml:space="preserve" height="268" viewBox="0 0 1024 268" width="1024" version="1.1" y="0px" x="0px" xmlns:cc="http://creativecommons.org/ns#" xmlns:dc="http://purl.org/dc/elements/1.1/"><metadata id="metadata25"><rdf:RDF><cc:Work rdf:about=""><dc:format>image/svg+xml</dc:format><dc:type rdf:resource="http://purl.org/dc/dcmitype/StillImage"/><dc:title/></cc:Work></rdf:RDF></metadata>
<path id="path3" fill="#8899a5" d="m1021.7,172.38,0,6.754-1.056-0.069,1.674-20.14-9.534,1.188-0.849,18.354-2.514-0.173,3.354-32.811-15.196,0.722-0.839,17.736-0.275-0.291-6.229-4.733-5.619,3.977,0.778-6.854-15.791,0.555-0.931,18.904-0.812-0.057,1.731-35.228-10.852-3.193-0.275,26.439c-0.688-1.102-1.734-2.858-1.906-3.614-0.26-1.142-0.039-11.092-0.039-11.092l-3.636-0.854-0.567,5.853-2.93-4.463-4.751-1.371s-4.925,0.095-5.554,2.629c-0.631,2.537-3.52,4.791-3.52,4.791l-0.84-3.106-2.72,0.4-1.58,4.313-4.958,3.354-3.268,1.669s-3.551,0.037-6.313,0.046l0.207-3.899-4.262-0.733-1.917-4.433,0.803-7.904-3.515-0.461-1.229,12.076-3.932-0.484s-10.052-2.291-15.127-2.693c-1.811-0.145-2.979-0.047-2.818,0.48,0.312,1.039-0.938,6.645-2.224,11.838l-1.125-11.203-5.812-3.381-13.09-5.68-9.744,3.267,2.252-23.628-11.43,1.234-1.039,17.969c-3.249,0.174-6.186,0.471-6.186,0.471l-3.312-0.088,0.253-12.75-2.986-0.104-0.169,8.382-2.089,4.339-3.694,0.122,0.843-14.258-7.654-3.092-0.89,26.155-1.229-0.626-8.104,3.521,1.02-37.945-27.215,2.897-2.027,41.021-5.161-0.354,3.646-28.521-20.812,0.693-1.689,26.528-0.133-0.01,0.039-15.146-2.312-3.341-5.258-5.393-7.795,7.427,0.065-4.458-2.309-4.094-5.274-6.587-7.122,8.202,1.778-27.059-8.627-3.386-2.001,51.165-6.831-0.47,3.194-47.812-31.16-4.316-2.524,33.772c-1.881-0.256-3.396-0.463-3.396-0.463l-3.548-1.779-5.353-3.374-1.345-3.617-3.142-0.758-1.348,2.305s-3.158-2.243-3.609-4.351c-0.452-2.104-6.347-3.022-6.347-3.022l-5.938,0.271-4.132,3.077v-4.8l-4.616,0.044s-0.929,8.076-1.392,8.956c-0.465,0.88-3.723,3.294-3.723,3.294l-1.072,4.97-0.327,4.003-0.845,8.068-0.288-0.021-0.115-23.787-4.048-4.681-9.207-7.627-13.776,10.123-0.486,15.827-3.26-2.036-18.104-8.336-3.103,1.146,2.075-27.332-13.964-1.265-1.794,17.291-3.677-2.539-5.485,4.277-1.806-3.47,1.343-9.757-3.697-0.464-1.021-11.672-29.555,3.854-29.908-3.854-1.042,11.768-2.913,0.368,1.327,9.757-2.021,3.929-6.149-4.736-2.735,1.868-1.701-16.62-13.801,1.265,2.052,27.332-3.062-1.146-17.89,8.336-3.221,2.036-0.48-15.827-13.613-10.123-9.099,7.627-3.998,4.681-0.117,23.788-0.281,0.021-0.834-8.068-0.321-4.003-1.062-4.97s-3.218-2.414-3.677-3.294c-0.457-0.88-1.376-8.956-1.376-8.956l-4.562-0.044v4.8l-4.083-3.074-5.867-0.271s-5.826,0.919-6.272,3.023c-0.447,2.104-3.567,4.35-3.567,4.35l-1.333-2.305-3.103,0.758-1.327,3.617-5.289,3.374-3.504,1.779s-1.495,0.207-3.352,0.463l-2.496-33.772-30.79,4.317,3.156,47.812-6.75,0.47-1.977-51.165-8.524,3.386,1.761,27.059-7.038-8.202-5.213,6.587-2.278,4.094,0.062,4.458-7.703-7.427-5.193,5.394-2.283,3.34,0.04,15.146-0.132,0.011-1.669-26.529-20.566-0.693,3.603,28.521-5.102,0.354-2.004-41.021-26.89-2.897,1.008,37.945-8.009-3.521-1.215,0.626-0.878-26.154-7.563,3.091,0.832,14.258-3.652-0.122-2.064-4.339-0.165-8.382-2.955,0.104,0.251,12.75-3.271,0.088s-2.9-0.297-6.11-0.471l-1.028-17.969-11.293-1.234,2.222,23.624-9.628-3.267-12.934,5.68-5.739,3.381-1.114,11.203c-1.271-5.192-2.504-10.799-2.195-11.838,0.157-0.527-0.999-0.625-2.786-0.479-5.014,0.401-14.946,2.692-14.946,2.692l-3.884,0.484-1.215-12.076-3.471,0.461,0.793,7.904-1.896,4.433-4.209,0.733,0.204,3.899c-2.731-0.009-6.238-0.046-6.238-0.046l-3.229-1.669-4.901-3.354-1.561-4.313-2.687-0.399-0.828,3.105s-2.854-2.254-3.477-4.791c-0.622-2.534-5.488-2.629-5.488-2.629l-4.693,1.371-2.894,4.463-0.563-5.854-3.592,0.854s0.219,9.95-0.038,11.092c-0.169,0.757-1.204,2.516-1.884,3.614l-0.272-26.439-10.721,3.193,1.712,35.228-0.806,0.057-0.919-18.904-15.604-0.555,0.774,6.854-5.552-3.978-6.154,4.733-0.273,0.291-0.829-17.736-15.015-0.722,3.316,32.811-2.483,0.173-0.838-18.354-9.419-1.188,1.652,20.139-1.042,0.07-0.004-6.754-8.293-6.163-5.82,4.572-2.585,2.812-0.232,6.711-3.5,0.245v25.95l518.01-26.04,505.93,25.16v-34.895l-2.293,1.684z"/>
<linearGradient id="SVGID_1_" y2="217.71" gradientUnits="userSpaceOnUse" x2="164" gradientTransform="matrix(1,0,0,-1,348,252)" y1="50.162" x1="164">
	<stop id="stop6" stop-color="#0C313E" offset="0"/>
	<stop id="stop8" stop-color="#364E5A" offset="1"/>
</linearGradient>
<path id="path10" fill="url(#SVGID_1_)" d="m107.48,192.51c6.78-7.729,32.862-20.201,32.862-20.201s24.864-17.838,38.577-22.646c13.713-4.812,39.818-8.688,39.818-8.688l15.058-20.104-1.26-22.735-1.721-4.376-1.374-33.383,2.424-3.174,0.088-22.914,3.121,23.441,3,2.114,2.203,32.501-2.475,3.478,1.335,24.09s38.834,38.305,45.972,40.596c7.138,2.29,33.688,1.694,39.405-2.219,5.717-3.912,3.378-11.993,4.331-17.159,0.952-5.165,13.944-13.34,13.944-13.34h16.48s3.793,7.202,8.416,11.506,15.037,13.016,15.037,13.016l11.417-1.846v-48.049s5.391-31.106,17.67-31.508c12.121-0.397,19.249,12.295,20.139,25.11,1.212,17.524,4.938,60.867,4.938,60.867l5.809-2.731s0.44-9.832,1.362-14.482c0.922-4.648,9.19-3.18,9.659-0.688,0.469,2.487,0,13.325,0,13.325l4.236,3.688s4.49-46.047,4.974-50.537c0.482-4.491,3.522-5.123,3.761-3.56,0.49,3.206,2.642,22.021,4.647,22.011,2.009-0.01,1.946-27.123,2.222-31.354,0.276-4.229,2.62-2.188,2.62-2.188s3.066,19.688,5.56,19.812c2.489,0.121,2.877-49.803,3.675-54.035,0.796-4.234,6.185-2.586,6.185-2.586s3.394,50.834,5.63,50.982c2.239,0.148,4.456-53.907,5.298-57.389,0.846-3.482,2.81-1.425,2.81-1.425s10.855,51.377,11.138,55.845c0.28,4.466,5.516,1.926,6.093-1.547,0.577-3.478,4.055-41.727,5.245-45.836,1.192-4.111,4.749-0.691,4.749-0.691s2.578,41.62,5.167,42.119c2.589,0.5,1.43-23.73,1.96-27.312,0.531-3.582,2.733,0,2.733,0l7.853,43.902,5.615,34.895h11.927s-2.682,1.512,0.521,5.207c3.201,3.697,14.088-0.534,14.088-0.534l0.231-45.646,12.041,0.515s1.153,40.441,2.699,45.698c1.548,5.258,17.238,2.704,18.582-1.645,1.346-4.353,0-51.078,0-51.078h20.291l3.868,47.48,5.426,3.598s6.938,10.198,11.624,10.215c4.688,0.016,10.775-8.604,10.775-8.604s6.187,10.019,12.153,10.246c5.966,0.23,8.764-1.645,8.764-1.645v-8.604h5.433l4.075,4.941h9.419s-0.037-55.812,4.104-58.955c4.139-3.143,29.247,0,29.247,0s-2.37-6.014-0.245-8.572c2.125-2.561,17.787-4.702,20.332-0.526,2.547,4.174,4.757,71.717,4.757,71.717l10.87-1.479s0.311-3.134,2.014-3.519c1.703-0.384,14.99-1.398,14.99-1.398l24.293-3.815s6.6-0.783,8.973,2.645c2.373,3.43-1.828,12.021,0,14.796s17.354,0,17.354,0l2.802-10.886h10.826s2.624,7.527,0,10.886c-2.623,3.358,33.529,9.583,33.529,9.583s12.231,5.164,14.01,6.781c7.017,6.396,14.798,17.336,14.798,17.336l-374.83-15.47s-284.38,9.12-286.39,8.593c-2.009-0.528-154.27,4.413-154.27,4.413s-4.465,1.096,2.517-6.867z"/>
<linearGradient id="SVGID_2_" y2="81.251" gradientUnits="userSpaceOnUse" x2="164" gradientTransform="matrix(1,0,0,-1,348,252)" y1="-16" x1="164">
	<stop id="stop13" stop-color="#45A85F" offset="0"/>
	<stop id="stop15" stop-color="#41773E" offset="1"/>
</linearGradient>
<path id="path17" fill="url(#SVGID_2_)" d="M1024,268v-77.102c-150.14-12.868-320.89-20.148-502-20.148-189.2,0-367.1,7.944-522,21.907v75.34h1024z"/>
<g id="Layer_3" transform="translate(0,-332)">
</g>
<g id="Layer_2" transform="translate(0,-332)">
</g>
</svg>
