<?xml version="1.0" encoding="utf-8"?>
<!-- Generator: Adobe Illustrator 15.0.0, SVG Export Plug-In . SVG Version: 6.00 Build 0)  -->
<!DOCTYPE svg PUBLIC "-//W3C//DTD SVG 1.1//EN" "http://www.w3.org/Graphics/SVG/1.1/DTD/svg11.dtd">
<svg version="1.1" xmlns="http://www.w3.org/2000/svg" xmlns:xlink="http://www.w3.org/1999/xlink" x="0px" y="0px" width="1024px"
	 height="600px" viewBox="0 0 1024 600" enable-background="new 0 0 1024 600" xml:space="preserve">
<g id="Layer_1" display="none">
	<path display="inline" fill="#0C0C0C" d="M1021.707,504.383l-0.005,6.754l-1.056-0.07l1.674-20.139l-9.534,1.187l-0.849,18.354
		l-2.513-0.173l3.354-32.811l-15.196,0.722l-0.839,17.736l-0.275-0.291l-6.229-4.733l-5.619,3.977l0.779-6.854l-15.791,0.555
		l-0.931,18.904l-0.813-0.057l1.732-35.227l-10.852-3.194l-0.275,26.44c-0.688-1.102-1.734-2.858-1.906-3.614
		c-0.26-1.142-0.039-11.092-0.039-11.092l-3.636-0.854l-0.567,5.853l-2.93-4.463l-4.751-1.371c0,0-4.925,0.095-5.554,2.629
		c-0.631,2.537-3.52,4.791-3.52,4.791l-0.839-3.107l-2.72,0.401l-1.58,4.313l-4.958,3.355l-3.268,1.669c0,0-3.55,0.037-6.313,0.046
		l0.207-3.9l-4.262-0.733l-1.917-4.433l0.803-7.904l-3.515-0.461l-1.229,12.076l-3.932-0.484c0,0-10.052-2.291-15.127-2.694
		c-1.81-0.144-2.979-0.046-2.818,0.481c0.312,1.039-0.938,6.644-2.224,11.838l-1.125-11.203l-5.812-3.381l-13.09-5.68l-9.744,3.267
		l2.252-23.628l-11.43,1.234l-1.039,17.969c-3.249,0.174-6.186,0.471-6.186,0.471l-3.312-0.088l0.253-12.75l-2.986-0.104
		l-0.169,8.382l-2.089,4.339l-3.695,0.122l0.843-14.258l-7.654-3.092l-0.89,26.156l-1.229-0.626l-8.105,3.521l1.02-37.945
		l-27.215,2.897l-2.027,41.021l-5.162-0.354l3.646-28.521l-20.812,0.693l-1.689,26.529l-0.133-0.01l0.039-15.146l-2.312-3.341
		l-5.258-5.392l-7.795,7.427l0.065-4.458l-2.308-4.094l-5.275-6.587l-7.122,8.202l1.779-27.058l-8.627-3.386l-2.001,51.165
		l-6.831-0.47l3.194-47.812l-31.16-4.317l-2.525,33.773c-1.88-0.256-3.395-0.463-3.395-0.463l-3.548-1.78l-5.352-3.374l-1.345-3.617
		l-3.142-0.758l-1.347,2.305c0,0-3.159-2.243-3.61-4.35c-0.452-2.104-6.347-3.023-6.347-3.023l-5.938,0.271l-4.134,3.074v-4.8
		l-4.616,0.044c0,0-0.929,8.076-1.392,8.956c-0.464,0.88-3.722,3.294-3.722,3.294l-1.073,4.97l-0.327,4.003l-0.844,8.068
		l-0.288-0.021l-0.116-23.788l-4.047-4.68l-9.208-7.627l-13.776,10.123l-0.486,15.827l-3.26-2.036l-18.104-8.336l-3.103,1.146
		l2.075-27.332l-13.964-1.264l-1.794,17.291l-3.676-2.539l-5.486,4.277l-1.805-3.47l1.342-9.757l-3.697-0.463l-1.021-11.672
		l-29.555,3.854l-29.908-3.854l-1.042,11.767l-2.913,0.368l1.327,9.757l-2.021,3.929l-6.149-4.736l-2.735,1.868l-1.702-16.62
		l-13.8,1.264l2.051,27.332l-3.062-1.146l-17.89,8.336l-3.22,2.036l-0.481-15.827l-13.613-10.123l-9.099,7.627l-3.998,4.68
		l-0.117,23.788l-0.281,0.021l-0.834-8.068l-0.322-4.003l-1.062-4.97c0,0-3.218-2.414-3.677-3.294
		c-0.457-0.88-1.376-8.956-1.376-8.956l-4.561-0.044v4.8l-4.083-3.074l-5.867-0.271c0,0-5.826,0.919-6.272,3.024
		c-0.447,2.104-3.567,4.349-3.567,4.349l-1.333-2.305l-3.103,0.758l-1.327,3.617l-5.289,3.374l-3.504,1.78
		c0,0-1.495,0.207-3.352,0.463l-2.496-33.773l-30.79,4.318l3.156,47.812l-6.75,0.47l-1.977-51.165l-8.524,3.386l1.761,27.058
		l-7.038-8.202l-5.213,6.587l-2.278,4.094l0.062,4.458l-7.703-7.427l-5.193,5.393l-2.283,3.34l0.04,15.146l-0.132,0.011
		l-1.669-26.53l-20.566-0.693l3.603,28.521l-5.102,0.354l-2.004-41.021l-26.89-2.897l1.008,37.945l-8.009-3.521l-1.215,0.626
		l-0.878-26.155l-7.563,3.091l0.832,14.258l-3.652-0.122l-2.064-4.339l-0.165-8.382l-2.955,0.104l0.251,12.75l-3.271,0.088
		c0,0-2.9-0.297-6.11-0.471l-1.028-17.969l-11.293-1.234l2.224,23.628l-9.628-3.267l-12.934,5.68l-5.739,3.381l-1.114,11.203
		c-1.271-5.193-2.504-10.799-2.195-11.838c0.157-0.527-0.999-0.625-2.786-0.48c-5.014,0.402-14.946,2.693-14.946,2.693l-3.884,0.484
		l-1.215-12.076l-3.471,0.461l0.793,7.904l-1.896,4.433l-4.209,0.733l0.204,3.9c-2.731-0.009-6.238-0.046-6.238-0.046l-3.229-1.669
		l-4.901-3.355l-1.561-4.313l-2.687-0.4l-0.828,3.106c0,0-2.854-2.254-3.477-4.791c-0.622-2.534-5.488-2.629-5.488-2.629
		l-4.693,1.371l-2.894,4.463l-0.563-5.854l-3.592,0.854c0,0,0.219,9.95-0.038,11.092c-0.169,0.757-1.204,2.515-1.884,3.614
		l-0.272-26.439l-10.721,3.193l1.712,35.227l-0.806,0.057l-0.919-18.904l-15.604-0.555l0.774,6.855l-5.552-3.978l-6.154,4.733
		l-0.273,0.291l-0.829-17.736l-15.015-0.722l3.316,32.811l-2.483,0.173l-0.838-18.354l-9.419-1.187l1.652,20.138l-1.042,0.071
		l-0.004-6.754l-8.293-6.163l-5.82,4.572l-2.585,2.812L3.5,512.314L0,512.559v25.95l518.074-26.081L1024,537.594v-34.895
		L1021.707,504.383z"/>
	
		<linearGradient id="SVGID_1_" gradientUnits="userSpaceOnUse" x1="280.002" y1="544.8369" x2="280.002" y2="377.2861" gradientTransform="matrix(1 0 0 1 232 -11)">
		<stop  offset="0" style="stop-color:#001621"/>
		<stop  offset="1" style="stop-color:#223640"/>
	</linearGradient>
	<path display="inline" fill="url(#SVGID_1_)" d="M107.479,524.508c6.78-7.73,32.862-20.201,32.862-20.201
		s24.864-17.838,38.577-22.646c13.713-4.812,39.818-8.688,39.818-8.688l15.058-20.104l-1.26-22.735l-1.721-4.376l-1.374-33.383
		l2.424-3.174l0.088-22.914l3.121,23.441l3,2.115l2.203,32.501l-2.475,3.477l1.335,24.09c0,0,38.834,38.305,45.972,40.596
		c7.138,2.29,33.688,1.694,39.405-2.219c5.717-3.912,3.378-11.993,4.331-17.159c0.952-5.165,13.944-13.34,13.944-13.34h16.48
		c0,0,3.793,7.202,8.416,11.506s15.037,13.016,15.037,13.016l11.417-1.846v-48.049c0,0,5.39-31.106,17.67-31.508
		c12.121-0.397,19.249,12.295,20.138,25.111c1.212,17.524,4.938,60.867,4.938,60.867l5.808-2.732c0,0,0.441-9.832,1.363-14.482
		c0.922-4.649,9.19-3.18,9.659-0.688c0.469,2.488,0,13.326,0,13.326l4.236,3.688c0,0,4.491-46.047,4.974-50.537
		c0.482-4.491,3.522-5.123,3.761-3.56c0.49,3.206,2.641,22.021,4.647,22.011c2.009-0.01,1.946-27.123,2.222-31.354
		c0.276-4.229,2.62-2.188,2.62-2.188s3.066,19.689,5.559,19.812c2.49,0.121,2.877-49.803,3.675-54.036
		c0.796-4.234,6.185-2.585,6.185-2.585s3.393,50.833,5.63,50.982c2.239,0.148,4.456-53.907,5.298-57.389
		c0.845-3.482,2.809-1.425,2.809-1.425s10.856,51.377,11.138,55.845c0.28,4.466,5.515,1.926,6.093-1.547
		c0.577-3.477,4.054-41.726,5.245-45.836c1.192-4.111,4.749-0.691,4.749-0.691s2.578,41.62,5.167,42.119
		c2.589,0.5,1.429-23.73,1.96-27.312s2.733,0,2.733,0l7.853,43.902l5.615,34.894h11.927c0,0-2.682,1.512,0.521,5.208
		c3.201,3.697,14.088-0.535,14.088-0.535l0.231-45.646l12.041,0.514c0,0,1.154,40.442,2.7,45.699
		c1.547,5.258,17.238,2.704,18.582-1.645c1.345-4.352,0-51.078,0-51.078h20.291l3.868,47.481l5.426,3.597
		c0,0,6.938,10.198,11.624,10.215c4.687,0.016,10.775-8.604,10.775-8.604s6.186,10.018,12.153,10.246
		c5.966,0.23,8.764-1.645,8.764-1.645v-8.604h5.433l4.075,4.941h9.419c0,0-0.037-55.812,4.104-58.955c4.139-3.143,29.247,0,29.247,0
		s-2.37-6.014-0.245-8.572c2.125-2.561,17.787-4.702,20.332-0.527c2.547,4.174,4.757,71.717,4.757,71.717l10.87-1.479
		c0,0,0.311-3.134,2.014-3.519c1.703-0.384,14.99-1.398,14.99-1.398l24.293-3.816c0,0,6.6-0.783,8.973,2.645
		c2.373,3.429-1.828,12.021,0,14.796c1.828,2.775,17.354,0,17.354,0l2.802-10.886h10.826c0,0,2.624,7.527,0,10.886
		c-2.623,3.358,33.529,9.583,33.529,9.583s12.232,5.164,14.01,6.781c7.017,6.396,14.798,17.336,14.798,17.336l-374.826-15.472
		c0,0-284.384,9.12-286.394,8.593c-2.009-0.528-154.274,4.413-154.274,4.413S100.497,532.471,107.479,524.508z"/>
	
		<linearGradient id="SVGID_2_" gradientUnits="userSpaceOnUse" x1="280.0005" y1="611" x2="280.0005" y2="513.75" gradientTransform="matrix(1 0 0 1 232 -11)">
		<stop  offset="0" style="stop-color:#0A5027"/>
		<stop  offset="1" style="stop-color:#282718"/>
	</linearGradient>
	<path display="inline" fill="url(#SVGID_2_)" d="M1024,600v-77.102c-150.142-12.869-320.889-20.148-502-20.148
		c-189.204,0-367.096,7.944-522,21.907V600H1024z"/>
	
		<linearGradient id="SVGID_3_" gradientUnits="userSpaceOnUse" x1="281.7739" y1="600.5771" x2="281.7739" y2="513.752" gradientTransform="matrix(1 0 0 1 232 -11)">
		<stop  offset="0" style="stop-color:#264221"/>
		<stop  offset="0.9939" style="stop-color:#001500"/>
	</linearGradient>
	<path display="inline" opacity="0.52" fill="url(#SVGID_3_)" enable-background="new    " d="M891.642,516.009
		c0,0,5.387-1.167,9.528-2.191c-117.551-7.152-244.683-11.065-377.393-11.065c-140.274,0-274.319,4.37-397.399,12.319
		c7.398,2.104,13.964,3.715,13.964,3.715s24.864,9.147,38.577,11.616c13.713,2.468,39.818,4.456,39.818,4.456l15.058,10.311
		l-1.26,11.661l-1.721,2.245l-1.374,17.121l2.424,1.628l0.088,11.753l3.121-12.024l3-1.085l2.203-16.669l-2.475-1.782l1.335-12.354
		c0,0,38.834-19.646,45.972-20.822c7.138-1.174,33.688-0.869,39.405,1.139c5.717,2.008,3.378,6.151,4.331,8.803
		c0.952,2.647,13.944,6.842,13.944,6.842h16.48c0,0,3.793-3.694,8.416-5.901s15.037-6.676,15.037-6.676l11.417,0.947v24.644
		c0,0,5.388,15.955,17.67,16.16c12.119,0.204,19.247-6.306,20.136-12.88c1.212-8.988,4.938-31.219,4.938-31.219l5.81,1.4
		c0,0,0.439,5.043,1.361,7.428c0.921,2.388,9.19,1.633,9.659,0.354s0-6.836,0-6.836l4.236-1.89c0,0,4.492,23.615,4.974,25.92
		c0.482,2.304,3.522,2.628,3.761,1.824c0.49-1.645,2.641-11.295,4.647-11.29c2.009,0.007,1.946,13.911,2.222,16.081
		c0.276,2.17,2.62,1.122,2.62,1.122s3.066-10.1,5.559-10.161c2.49-0.062,2.879,25.545,3.675,27.717
		c0.796,2.173,6.185,1.324,6.185,1.324s3.393-26.07,5.63-26.147c2.239-0.076,4.456,27.647,5.298,29.435
		c0.845,1.786,2.809,0.73,2.809,0.73s10.856-26.354,11.138-28.645c0.28-2.29,5.517-0.985,6.093,0.794
		c0.577,1.782,4.054,21.399,5.245,23.511c1.192,2.106,4.749,0.354,4.749,0.354s2.578-21.347,5.167-21.603
		c2.589-0.259,1.431,12.171,1.96,14.009c0.531,1.837,2.733,0,2.733,0l7.853-22.52l5.615-17.896h11.927c0,0-2.682-0.773,0.521-2.671
		c3.201-1.896,14.088,0.273,14.088,0.273l0.232,23.411l12.041-0.264c0,0,1.153-20.742,2.699-23.438
		c1.548-2.695,17.238-1.388,18.582,0.845c1.346,2.229,0,26.196,0,26.196h20.291l3.868-24.354l5.426-1.844
		c0,0,6.938-5.23,11.624-5.238c4.687-0.009,10.775,4.411,10.775,4.411s6.188-5.137,12.153-5.255s8.764,0.844,8.764,0.844v4.411
		h5.433l4.075-2.534h9.419c0,0-0.037,28.626,4.104,30.238c4.139,1.609,29.247,0,29.247,0s-2.37,3.084-0.245,4.396
		c2.125,1.313,17.787,2.412,20.332,0.271c2.547-2.143,4.757-36.783,4.757-36.783l10.87,0.759c0,0,0.311,1.606,2.014,1.805
		c1.703,0.196,14.99,0.719,14.99,0.719l24.293,1.958c0,0,6.6,0.4,8.973-1.355c2.373-1.759-1.827-6.166,0-7.589
		c1.828-1.423,17.354,0,17.354,0l2.802,5.583h10.826c0,0,2.624-3.861,0-5.583C855.487,519.201,891.642,516.009,891.642,516.009z"/>
	<g id="Layer_3" display="inline">
	</g>
	<g id="Layer_2" display="inline">
	</g>
</g>
<g id="Layer_2_1_">
	<g>
		<rect x="400" y="436.875" fill="#F9FF83" width="3.125" height="5.125"/>
		<rect x="408.25" y="436.875" fill="#F9FF83" width="3.125" height="5.125"/>
		<rect x="408.25" y="446.75" fill="#F9FF83" width="3.125" height="5.125"/>
		<rect x="408.25" y="468.75" fill="#F9FF83" width="3.125" height="5.125"/>
		<rect x="415.5" y="468.75" fill="#F9FF83" width="3.125" height="5.125"/>
		<rect x="427.125" y="468.75" fill="#F9FF83" width="3.125" height="5.125"/>
		<rect x="480.938" y="468.75" fill="#F9FF83" width="3.125" height="5.125"/>
		<rect x="531.271" y="454.75" fill="#F9FF83" width="3.125" height="5.125"/>
		<rect x="522.604" y="479.017" fill="#F9FF83" width="3.125" height="5.125"/>
		<rect x="447.25" y="473.875" fill="#F9FF83" width="3.125" height="5.125"/>
		<rect x="336.5" y="473.875" fill="#F9FF83" width="3.125" height="5.125"/>
		<rect x="348.5" y="473.875" fill="#F9FF83" width="3.125" height="5.125"/>
		<rect x="353.75" y="473.875" fill="#F9FF83" width="3.125" height="5.125"/>
		<rect x="359.625" y="486.125" fill="#F9FF83" width="3.125" height="5.125"/>
		<rect x="584.875" y="444.188" fill="#F9FF83" width="3.125" height="5.125"/>
		<rect x="590.625" y="444.188" fill="#F9FF83" width="3.125" height="5.125"/>
		<rect x="584.875" y="465.188" fill="#F9FF83" width="3.125" height="5.125"/>
		<rect x="584.875" y="455.521" fill="#F9FF83" width="3.125" height="5.125"/>
		<rect x="619.375" y="461.854" fill="#F9FF83" width="3.125" height="5.125"/>
		<rect x="625.375" y="461.854" fill="#F9FF83" width="3.125" height="5.125"/>
		<rect x="630.541" y="452.188" fill="#F9FF83" width="3.125" height="5.125"/>
		<rect x="625.375" y="443.521" fill="#F9FF83" width="3.125" height="5.125"/>
		<rect x="630.541" y="434.521" fill="#F9FF83" width="3.125" height="5.125"/>
		<rect x="712.208" y="481.579" fill="#F9FF83" width="3.125" height="5.125"/>
		<rect x="721.208" y="481.579" fill="#F9FF83" width="3.125" height="5.125"/>
		<rect x="733.208" y="470.312" fill="#F9FF83" width="3.125" height="5.125"/>
		<rect x="733.208" y="437.083" fill="#F9FF83" width="3.125" height="5.125"/>
		<rect x="753.604" y="429.774" fill="#F9FF83" width="3.125" height="5.125"/>
		<rect x="715.333" y="455.521" fill="#F9FF83" width="3.125" height="5.125"/>
		<rect x="817.604" y="489.604" fill="#F9FF83" width="3.125" height="5.125"/>
		<rect x="802.604" y="492.167" fill="#F9FF83" width="3.125" height="5.125"/>
		<rect x="740.375" y="470.312" fill="#F9FF83" width="3.125" height="5.125"/>
	</g>
</g>
</svg>
