<?xml version="1.0" encoding="UTF-8" standalone="no"?>
<!-- Created with Inkscape (http://www.inkscape.org/) -->

<svg
   xmlns:dc="http://purl.org/dc/elements/1.1/"
   xmlns:cc="http://creativecommons.org/ns#"
   xmlns:rdf="http://www.w3.org/1999/02/22-rdf-syntax-ns#"
   xmlns:svg="http://www.w3.org/2000/svg"
   xmlns="http://www.w3.org/2000/svg"
   version="1.1"
   width="126"
   height="469"
   viewBox="0 0 126 469"
   id="Layer_1"
   xml:space="preserve"><metadata
   id="metadata100"><rdf:RDF><cc:Work
       rdf:about=""><dc:format>image/svg+xml</dc:format><dc:type
         rdf:resource="http://purl.org/dc/dcmitype/StillImage" /><dc:title></dc:title></cc:Work></rdf:RDF></metadata><defs
   id="defs98" />
<g
   transform="translate(-229.83251,-131.30563)"
   id="g3">
	<g
   id="g5">
		
			<linearGradient
   x1="177.66701"
   y1="190.6665"
   x2="177.66701"
   y2="591.33252"
   id="SVGID_1_"
   gradientUnits="userSpaceOnUse"
   gradientTransform="matrix(1,0,0,-1,116,787)">
			<stop
   id="stop8"
   style="stop-color:#4b3d2f;stop-opacity:1"
   offset="0" />
			<stop
   id="stop10"
   style="stop-color:#4b3c2f;stop-opacity:1"
   offset="0.46599999" />
			<stop
   id="stop12"
   style="stop-color:#483a2d;stop-opacity:1"
   offset="0.63380003" />
			<stop
   id="stop14"
   style="stop-color:#44362a;stop-opacity:1"
   offset="0.75340003" />
			<stop
   id="stop16"
   style="stop-color:#3e3125;stop-opacity:1"
   offset="0.85009998" />
			<stop
   id="stop18"
   style="stop-color:#372a20;stop-opacity:1"
   offset="0.93199998" />
			<stop
   id="stop20"
   style="stop-color:#2e221a;stop-opacity:1"
   offset="1" />
		</linearGradient>
		<rect
   width="7.3070002"
   height="400.66699"
   x="290.01401"
   y="195.66701"
   id="rect22"
   style="fill:url(#SVGID_1_)" />
		<rect
   width="7.3070002"
   height="400.66699"
   x="290.01401"
   y="195.66701"
   id="rect24"
   style="fill:none;stroke:#1e1d1b;stroke-miterlimit:10" />
	</g>
</g>
<g
   transform="translate(-229.83251,-131.30563)"
   id="g26">
	<g
   id="g28">
		<path
   d="m 293.667,255.507 c -33.35,0 -60.479,-27.133 -60.479,-60.48 0,-33.351 27.131,-60.481 60.479,-60.481 33.348,0 60.481,27.132 60.481,60.481 0,33.348 -27.13,60.48 -60.481,60.48 z m 0,-118.242 c -31.848,0 -57.76,25.912 -57.76,57.762 0,31.849 25.912,57.759 57.76,57.759 31.851,0 57.761,-25.91 57.761,-57.759 0,-31.85 -25.91,-57.762 -57.761,-57.762 z"
   id="path30"
   style="fill:#f9f9fa" />
		
			<linearGradient
   x1="99.814003"
   y1="57.9067"
   x2="23.523399"
   y2="-29.855499"
   id="SVGID_2_"
   gradientUnits="userSpaceOnUse"
   gradientTransform="translate(232,181)">
			<stop
   id="stop33"
   style="stop-color:#c5c5bc;stop-opacity:1"
   offset="0.0123" />
			<stop
   id="stop35"
   style="stop-color:#f6f6f7;stop-opacity:1"
   offset="1" />
		</linearGradient>
		<circle
   cx="293.66901"
   cy="195.02499"
   r="58.141998"
   id="circle37"
   style="fill:url(#SVGID_2_)" />
		<g
   id="g39">
			<path
   d="m 285.492,250.085 c 1.411,-0.305 16.312,-0.32 19.555,-1.301 3.244,-0.979 14.211,-4.633 15.686,-5.926 1.479,-1.293 7.895,-5.244 8.975,-6.564 1.08,-1.318 2.582,-3.008 2.582,-3.008 l -2.902,-1.184 1.238,-0.716 c 0,0 2.043,-0.857 0.221,-3.36 -1.822,-2.504 -3.787,-2.832 -4.842,-1.907 -1.057,0.924 -4.322,2.299 -4.994,3.448 -0.67,1.146 -2.605,3.402 -2.303,4.812 0.307,1.41 1.029,2.451 1.82,2.504 0.793,0.053 2.43,-0.637 2.572,0.168 0.146,0.807 -1.104,1.719 -1.936,2.26 -0.832,0.541 -3.703,1.939 -5.051,1.258 -1.346,-0.685 -3.65,1.148 -3.863,-1.646 -0.217,-2.795 2.473,-4.404 2.879,-7.559 0.404,-3.152 3,-6.358 3.537,-8.509 0.539,-2.151 4.105,-1.32 4.188,-2.904 0.08,-1.584 -1.188,-3.456 -2.033,-5.697 -0.848,-2.241 1.98,-2.254 2.605,-3.007 0.623,-0.754 4.232,-1.312 4.971,-3.449 0.736,-2.137 5.746,-2.802 5.877,-4.779 0.129,-1.979 -3.182,-2.989 -3.242,-5.079 -0.062,-2.092 1.674,-7.343 -1.256,-8.128 -2.93,-0.788 -4.986,-2.711 -6.412,-2.208 -1.422,0.502 -3.396,3.353 -6.129,2.576 -2.73,-0.773 -4.191,0.321 -5.064,-1.521 -0.871,-1.846 -3.109,-1.041 -4.229,-2.188 -1.117,-1.146 -0.879,-1.725 -1.516,-4.15 -0.635,-2.425 -0.398,-3.006 -2.8,-2.768 -2.398,0.24 -4.02,0.702 -5.927,-0.502 -1.907,-1.204 -3.021,-5.446 -4.457,-4.748 -1.437,0.7 -4.096,4.897 -3.606,6.521 0.49,1.622 4.52,3.273 4.992,3.902 0.474,0.628 -0.892,2.724 -0.285,4.353 0.605,1.629 2.111,2.919 3.242,0.809 1.131,-2.11 2.912,-1.995 5.287,-1.839 2.372,0.155 2.257,1.938 2.337,3.729 0.082,1.792 -0.771,5.711 0.76,6.604 1.531,0.896 7.213,-0.917 8.729,0.175 1.52,1.095 2.445,5.128 1.922,7.08 -0.525,1.952 -2.283,-1.541 -3.617,-2.423 -1.332,-0.882 -3.641,0.954 -5.074,1.654 -1.439,0.701 -3.812,0.583 -4.931,2.478 -1.117,1.896 -1.602,6.234 -2.1,7.791 -0.5,1.559 -2.703,1.812 -3.916,2.127 -1.212,0.318 -1.305,1.703 -0.393,2.954 0.91,1.252 3.402,-0.373 5.207,-0.65 1.809,-0.279 3.837,-0.94 4.522,0.692 0.688,1.636 0.043,2.388 0.072,4.974 0.029,2.584 -1.131,2.108 -2.407,3.418 -1.279,1.307 -4.747,2.669 -5.062,4.437 -0.313,1.769 -1.721,5.052 -3.514,5.134 -1.794,0.08 -3.865,-1.645 -5.027,-2.117 -1.16,-0.474 -2.192,0.133 -1.772,2.803 0.422,2.672 1.187,3.119 3.771,3.092 2.584,-0.031 5.617,-0.824 7.582,-0.498 1.965,0.328 4.299,1.078 3.945,3.438 -0.354,2.359 -1.658,1.084 -4.072,1.521 -2.412,0.438 -5.998,0.602 -8.358,0.246 -2.361,-0.354 -3.166,-0.207 -5.022,0.863 -1.859,1.068 -5.445,1.23 -7.519,-0.492 -2.073,-1.724 -14.078,-6.486 -15.755,-8.188 -1.676,-1.697 -4.381,-2.867 -4.381,-2.867 0,0 -0.34,2.16 1.916,4.098 2.258,1.936 12.424,7.479 14.193,7.74 1.773,0.255 9.173,2.528 10.584,2.223 z"
   id="path41"
   style="fill:#d6d2d1" />
			<path
   d="m 342.002,194.19 c 0.451,2.215 2.18,3.123 2.957,3.373 0.777,0.25 1.275,-1.31 1.395,-3.09 0.117,-1.778 -1.217,-2.66 -1.941,-3.701 -0.727,-1.041 -2.178,-0.145 -2.178,-0.145 l -0.233,3.563 z"
   id="path43"
   style="fill:#d6d2d1" />
			<path
   d="m 302.026,152.432 c -1.752,2.47 -5.441,4.215 -6.957,6.102 -1.516,1.888 -0.26,3.957 -0.26,3.957 0,0 1.712,-1.875 3.373,-2.958 1.66,-1.083 3.861,-1.337 5.156,0.139 1.292,1.478 2.351,3.531 3.315,6.973 0.967,3.439 1.723,7.065 2.557,9.506 0.834,2.438 2.23,4.915 4.002,5.428 1.768,0.513 0.875,-7.095 3.062,-7.15 2.189,-0.055 3.686,4.414 6.045,4.769 2.359,0.354 3.598,-3.34 4.24,-4.094 0.646,-0.753 1.953,0.524 1.953,0.524 1.439,2.28 2.312,4.125 3.947,3.438 1.633,-0.688 1.381,-2.892 1.299,-4.685 -0.08,-1.793 0.062,-3.97 -1.205,-5.841 -1.267,-1.871 -1.783,-3.097 -3.25,-4.981 -1.465,-1.884 -2.037,-5.299 -4.385,-5.85 -2.348,-0.551 -4.09,-1.261 -6.201,-2.393 -2.109,-1.133 -3.125,-0.803 -4.943,-0.324 -1.818,0.477 -4.645,-1.896 -6.412,-2.208 -1.762,-0.316 -3.586,-2.82 -5.336,-0.352 z"
   id="path45"
   style="fill:#d6d2d1" />
			<path
   d="m 279.519,189.683 c -0.528,-1.042 2.408,-3.403 4.727,-5.438 2.319,-2.034 2.079,-4.433 0.299,-4.535 -1.781,-0.102 -5.625,2.466 -8.158,3.225 -1.631,0.488 -1.822,-2.503 -1.338,-3.847 0.485,-1.344 0.617,-3.352 -0.742,-3.838 -1.356,-0.486 -3.256,1.178 -4.889,1.865 -1.636,0.688 -5.338,2.63 -7.066,4.702 -1.73,2.07 0.549,3.811 1.938,6.866 1.389,3.059 1.967,3.321 3.918,3.864 1.952,0.542 4.471,-1.512 7.648,-1.503 3.174,0.011 4.19,-0.319 3.663,-1.361 z"
   id="path47"
   style="fill:#d6d2d1" />
			<path
   d="m 265.372,160.79 c -0.148,0.388 0.16,1.734 0.557,1.761 0.397,0.027 0.425,1.619 1.916,1.119 1.492,-0.499 1.255,-0.91 2.369,0.29 1.115,1.199 2.666,3.821 3.775,3.098 1.107,-0.724 0.756,-1.408 1.25,-2.9 0.496,-1.492 1.166,-1.581 1.924,-1.001 0.756,0.58 1.334,-0.045 1.193,-0.982 -0.141,-0.937 -1.338,-0.884 -1.664,-1.966 -0.327,-1.083 2.062,-1.058 1.958,-2.524 -0.104,-1.466 0.177,-1.712 -0.714,-2.302 -0.889,-0.589 -1.119,-1.134 -1.71,-2.231 -0.591,-1.102 2.213,-1.314 2.864,-2.199 0.652,-0.886 3.539,-0.564 4.518,-0.234 0.979,0.329 0.973,0.062 1.559,-1.624 0.588,-1.685 0.666,-1.017 -1.367,-1.282 -2.032,-0.266 -5.147,0.725 -5.477,-0.357 -0.326,-1.083 3.484,-2.559 4.575,-3.018 1.091,-0.459 6.33,0.55 7.739,1.305 1.41,0.755 3.385,3.006 4.369,2.143 0.983,-0.864 1.884,-0.407 1.699,0.376 -0.185,0.784 -0.279,2.237 -0.279,2.237 l 0.959,-0.603 c -0.441,-1.222 0.756,-1.274 2.34,-1.172 1.586,0.104 2.131,-0.125 1.127,-0.985 -1.008,-0.862 -2.943,-1.652 -4.602,-2.689 -1.654,-1.037 -3.639,-3.157 -5.223,-3.26 -1.585,-0.104 -3.986,-0.261 -5.359,-0.354 -1.377,-0.089 -4.028,0.001 -6.016,0.935 -1.986,0.931 -6.801,1.543 -8.227,3.041 -1.424,1.498 -4.512,4.081 -5.232,4.962 -0.72,0.881 1.207,-0.188 1.551,0.632 0.344,0.819 -0.888,1.401 -0.938,2.193 -0.054,0.792 2.026,1.459 2.221,2.531 0.195,1.074 -0.719,2.871 -1.438,3.753 -0.721,0.874 -2.068,0.918 -2.217,1.307 z"
   id="path49"
   style="fill:#d6d2d1" />
			<path
   d="m 264.761,172.339 c 1.127,-2.012 2.559,-6.03 1.636,-6.747 -1.478,-1.146 -3.75,-3.41 -5.021,-2.209 -1.271,1.201 -4.207,3.592 -4.338,5.57 -0.13,1.979 0.532,4.008 2.299,4.322 1.767,0.314 4.299,1.076 5.424,-0.936 z"
   id="path51"
   style="fill:#d6d2d1" />
		</g>
		<g
   id="g53">
			<path
   d="m 350.266,197.702 c -0.395,-1.388 -1.387,-16.255 -2.576,-19.428 -1.188,-3.174 -5.551,-13.877 -6.938,-15.267 -1.389,-1.387 -5.748,-7.533 -7.139,-8.522 -1.387,-0.991 -3.172,-2.379 -3.172,-2.379 l -0.988,2.974 -0.793,-1.189 c 0,0 -0.992,-1.98 -3.371,0 -2.379,1.982 -2.576,3.966 -1.586,4.956 0.99,0.992 2.576,4.163 3.768,4.76 1.189,0.595 3.568,2.379 4.955,1.981 1.389,-0.396 2.379,-1.188 2.379,-1.981 0,-0.792 -0.793,-2.38 0,-2.577 0.793,-0.199 1.785,0.989 2.381,1.784 0.594,0.79 2.18,3.566 1.586,4.954 -0.596,1.39 1.387,3.569 -1.389,3.967 -2.777,0.396 -4.562,-2.182 -7.73,-2.378 -3.174,-0.199 -6.543,-2.578 -8.725,-2.976 -2.18,-0.396 -1.586,-4.012 -3.172,-3.988 -1.586,0.024 -3.369,1.411 -5.549,2.402 -2.184,0.991 -2.381,-1.831 -3.176,-2.402 -0.793,-0.569 -1.586,-4.14 -3.766,-4.732 -2.181,-0.595 -3.173,-5.551 -5.154,-5.551 -1.981,0 -2.774,3.368 -4.856,3.566 -2.082,0.198 -7.435,-1.188 -8.028,1.784 -0.595,2.973 -2.379,5.155 -1.784,6.542 0.596,1.388 3.568,3.172 2.975,5.947 -0.595,2.773 0.594,4.163 -1.189,5.152 -1.784,0.991 -0.833,3.174 -1.904,4.362 -1.068,1.189 -1.664,0.991 -4.042,1.784 -2.379,0.793 -2.975,0.595 -2.577,2.974 0.396,2.379 0.963,3.965 -0.113,5.947 -1.075,1.982 -5.238,3.37 -4.445,4.757 0.793,1.387 5.152,3.769 6.738,3.172 1.586,-0.595 2.975,-4.723 3.568,-5.234 0.596,-0.515 7.137,-2.297 4.957,-3.289 -2.182,-0.991 7.137,-7.334 7.93,-8.92 0.793,-1.586 -1.387,-7.139 -0.396,-8.725 0.991,-1.586 4.955,-2.774 6.938,-2.379 1.981,0.397 -1.387,2.379 -2.18,3.769 -0.793,1.388 1.188,3.566 1.982,4.956 0.793,1.388 0.828,3.767 2.792,4.758 1.965,0.99 6.324,1.188 7.91,1.586 1.588,0.396 1.982,2.578 2.381,3.767 0.396,1.189 1.783,1.189 2.973,0.198 1.191,-0.991 -0.594,-3.37 -0.99,-5.154 -0.396,-1.784 17.645,9.12 17.248,10.311 -0.396,1.188 0.273,2.18 2.912,1.585 2.637,-0.597 3.033,-1.389 2.836,-3.965 -0.199,-2.577 -1.189,-5.552 -0.992,-7.533 0.199,-1.982 0.793,-4.361 3.172,-4.164 2.379,0.199 1.189,1.587 1.785,3.966 0.594,2.379 0.992,5.947 0.793,8.326 -0.199,2.379 0,3.172 1.189,4.956 1.188,1.784 1.586,5.352 0,7.533 -1.586,2.181 -5.551,14.472 -7.137,16.256 -1.588,1.785 -2.578,4.56 -2.578,4.56 0,0 2.182,0.198 3.965,-2.181 1.785,-2.378 6.65,-12.885 6.797,-14.669 0.138,-1.788 1.921,-9.322 1.525,-10.709 z"
   id="path55"
   style="fill:#cecac8" />
			<path
   d="m 290.794,144.969 c 2.181,-0.594 2.974,-2.378 3.172,-3.171 0.197,-0.793 -1.389,-1.188 -3.172,-1.188 -1.785,0 -2.578,1.388 -3.568,2.18 -0.991,0.793 0,2.181 0,2.181 l 3.568,-0.002 0,0 z"
   id="path57"
   style="fill:#cecac8" />
			<path
   d="m 251.739,187.591 c 2.578,1.586 4.561,5.154 6.542,6.542 1.983,1.39 3.966,0 3.966,0 0,0 10.309,-14.271 12.688,-15.264 2.378,-0.991 4.758,-2.55 5.153,-4.348 0.396,-1.799 -3.172,-6.557 -2.975,-8.936 0.198,-2.379 -3.568,-3.37 -4.361,-3.965 -0.793,-0.595 0.396,-1.982 0.396,-1.982 2.182,-1.586 3.965,-2.576 3.172,-4.161 -0.793,-1.588 -2.973,-1.189 -4.758,-0.991 -1.783,0.198 -3.965,0.198 -5.749,1.586 -1.784,1.388 -2.974,1.98 -4.757,3.566 -1.785,1.585 -5.155,2.381 -5.551,4.759 -0.396,2.379 -0.992,4.161 -1.983,6.344 -0.991,2.181 -0.595,3.172 0,4.956 0.595,1.784 -1.585,4.758 -1.784,6.542 -0.196,1.784 -2.575,3.766 0.001,5.352 z"
   id="path59"
   style="fill:#cecac8" />
			<path
   d="m 290.384,207.614 c -1.006,0.595 -3.555,-2.182 -5.735,-4.361 -2.18,-2.179 -4.56,-1.785 -4.545,0 0.017,1.784 2.829,5.451 3.752,7.929 0.594,1.597 -2.379,1.983 -3.752,1.589 -1.372,-0.397 -3.384,-0.397 -3.781,0.988 -0.396,1.39 1.388,3.172 2.181,4.759 0.793,1.588 2.975,5.153 5.154,6.744 2.182,1.589 3.768,-0.797 6.727,-2.383 2.961,-1.586 3.188,-2.181 3.6,-4.163 0.414,-1.981 -1.801,-4.359 -1.998,-7.534 -0.203,-3.173 -0.599,-4.163 -1.603,-3.568 z"
   id="path61"
   style="fill:#cecac8" />
			<path
   d="m 269.979,221.306 c 0.595,0.187 2.577,-0.408 2.577,-1.005 0,-0.594 2.378,-0.793 1.486,-2.974 -0.893,-2.181 -1.483,-1.785 0.199,-3.569 1.684,-1.784 5.451,-4.359 4.262,-5.945 -1.189,-1.587 -2.183,-0.991 -4.461,-1.587 -2.279,-0.595 -2.479,-1.586 -1.686,-2.774 0.793,-1.19 -0.198,-1.989 -1.586,-1.688 -1.389,0.303 -1.189,2.085 -2.775,2.682 -1.586,0.595 -1.783,-2.98 -3.965,-2.682 -2.18,0.303 -2.576,-0.096 -3.369,1.292 -0.794,1.389 -1.586,1.784 -3.173,2.774 -1.585,0.992 -2.18,-3.178 -3.567,-4.067 -1.389,-0.889 -1.189,-5.232 -0.793,-6.729 0.396,-1.495 -4.164,-3.065 -4.36,0 -0.199,3.063 -4.758,-7.838 -3.768,-10.021 0.992,-2.181 3.568,-11.498 3.568,-13.877 0,-2.379 -0.396,-3.172 -1.586,-1.586 -1.189,1.586 -2.18,4.562 -3.567,7.139 -1.388,2.576 -4.362,5.749 -4.362,8.128 0,2.379 0,5.98 0,8.046 0,2.062 0.397,6.021 1.982,8.898 1.586,2.878 2.975,10.017 5.354,11.997 2.379,1.983 6.541,6.344 7.93,7.335 1.385,0.992 15.063,0.029 15.66,0.213 z"
   id="path63"
   style="fill:#cecac8" />
			<path
   d="m 274.042,223.473 c -2.082,-0.989 -6.186,-2.156 -6.84,-1.188 -1.047,1.549 -3.158,3.965 -1.875,5.155 1.281,1.188 3.857,3.964 5.84,3.964 1.983,0 3.965,-0.792 4.164,-2.577 0.197,-1.785 0.791,-4.364 -1.289,-5.354 z"
   id="path65"
   style="fill:#cecac8" />
		</g>
	</g>
</g>
<g
   transform="translate(-229.83251,-131.30563)"
   id="g67">
	
		<linearGradient
   x1="57.000999"
   y1="16.75"
   x2="68.334999"
   y2="16.75"
   id="SVGID_3_"
   gradientUnits="userSpaceOnUse"
   gradientTransform="translate(232,181)">
		<stop
   id="stop70"
   style="stop-color:#636467;stop-opacity:1"
   offset="0" />
		<stop
   id="stop72"
   style="stop-color:#616264;stop-opacity:1"
   offset="0.51529998" />
		<stop
   id="stop74"
   style="stop-color:#7e8083;stop-opacity:1"
   offset="1" />
	</linearGradient>
	<path
   d="m 294.669,192.583 c -2.85,0 -5.168,2.317 -5.168,5.167 0,2.849 2.318,5.166 5.168,5.166 2.849,0 5.166,-2.317 5.166,-5.166 0,-2.849 -2.317,-5.167 -5.166,-5.167 z"
   id="path76"
   style="fill:url(#SVGID_3_)" />
	<g
   id="g78">
		
			<linearGradient
   x1="60.2593"
   y1="22.4268"
   x2="65.078201"
   y2="11.0739"
   id="SVGID_4_"
   gradientUnits="userSpaceOnUse"
   gradientTransform="translate(232,181)">
			<stop
   id="stop81"
   style="stop-color:#7e8083;stop-opacity:1"
   offset="0" />
			<stop
   id="stop83"
   style="stop-color:#e9e9ea;stop-opacity:1"
   offset="0.98159999" />
		</linearGradient>
		<path
   d="m 294.669,191.583 c -3.4,0 -6.168,2.767 -6.168,6.167 0,3.4 2.768,6.166 6.168,6.166 3.399,0 6.166,-2.766 6.166,-6.166 0,-3.4 -2.767,-6.167 -6.166,-6.167 z m 0,11.834 c -3.131,0 -5.668,-2.537 -5.668,-5.666 0,-3.13 2.537,-5.667 5.668,-5.667 3.129,0 5.666,2.537 5.666,5.667 0,3.128 -2.537,5.666 -5.666,5.666 z"
   id="path85"
   style="fill:url(#SVGID_4_)" />
	</g>
	<g
   id="g87">
		
			<linearGradient
   x1="60.453602"
   y1="21.9678"
   x2="64.883102"
   y2="11.5325"
   id="SVGID_5_"
   gradientUnits="userSpaceOnUse"
   gradientTransform="translate(232,181)">
			<stop
   id="stop90"
   style="stop-color:#7e8083;stop-opacity:1"
   offset="0" />
			<stop
   id="stop92"
   style="stop-color:#e9e9ea;stop-opacity:1"
   offset="0.98159999" />
		</linearGradient>
		<path
   d="m 294.669,192.083 c -3.131,0 -5.668,2.537 -5.668,5.667 0,3.129 2.537,5.666 5.668,5.666 3.129,0 5.666,-2.537 5.666,-5.666 0,-3.129 -2.537,-5.667 -5.666,-5.667 z m 0,10.834 c -2.85,0 -5.168,-2.317 -5.168,-5.166 0,-2.85 2.318,-5.167 5.168,-5.167 2.849,0 5.166,2.317 5.166,5.167 0,2.848 -2.317,5.166 -5.166,5.166 z"
   id="path94"
   style="fill:url(#SVGID_5_)" />
	</g>
</g>
</svg>