<?xml version="1.0" encoding="UTF-8" standalone="no"?>
<!-- Generator: Adobe Illustrator 15.0.0, SVG Export Plug-In . SVG Version: 6.00 Build 0)  -->
<svg id="Layer_1" xmlns:rdf="http://www.w3.org/1999/02/22-rdf-syntax-ns#" xmlns="http://www.w3.org/2000/svg" enable-background="new 0 0 612 792" xml:space="preserve" height="178" viewBox="0 0 201 178" width="201" version="1.1" y="0px" x="0px" xmlns:cc="http://creativecommons.org/ns#" xmlns:dc="http://purl.org/dc/elements/1.1/"><metadata id="metadata584"><rdf:RDF><cc:Work rdf:about=""><dc:format>image/svg+xml</dc:format><dc:type rdf:resource="http://purl.org/dc/dcmitype/StillImage"/><dc:title/></cc:Work></rdf:RDF></metadata>
<g id="g3" transform="translate(-187.35484,-320.19355)">
	<g id="g5">
			<linearGradient id="SVGID_1_" y2="459.42" gradientUnits="userSpaceOnUse" x2="150.12" gradientTransform="matrix(1,0,0,-1,116,787)" y1="344.22" x1="150.12">
			<stop id="stop8" stop-color="#CCC" offset="0"/>
			<stop id="stop10" stop-color="#F2F2F2" offset="0.9877"/>
		</linearGradient>
		<path id="path12" fill="url(#SVGID_1_)" d="m262.75,349.77c2.415,1.186,4.675,2.669,6.737,4.291-2.033-1.715-4.298-3.16-6.737-4.291z"/>
			<linearGradient id="SVGID_2_" y2="459.42" gradientUnits="userSpaceOnUse" x2="172.05" gradientTransform="matrix(1,0,0,-1,116,787)" y1="344.23" x1="172.05">
			<stop id="stop15" stop-color="#595959" offset="0"/>
			<stop id="stop17" stop-color="#4B4B4B" offset="0.0172"/>
			<stop id="stop19" stop-color="#393939" offset="0.0473"/>
			<stop id="stop21" stop-color="#2D2D2D" offset="0.0837"/>
			<stop id="stop23" stop-color="#262626" offset="0.1325"/>
			<stop id="stop25" stop-color="#242424" offset="0.2454"/>
			<stop id="stop27" stop-color="#282828" offset="0.4439"/>
			<stop id="stop29" stop-color="#343434" offset="0.6486"/>
			<stop id="stop31" stop-color="#494949" offset="0.8556"/>
			<stop id="stop33" stop-color="#5C5C5C" offset="1"/>
		</linearGradient>
		<path id="path35" fill="url(#SVGID_2_)" d="m383.43,413.73c-0.031-16.206-12.779-29.384-28.775-30.195,1.117-3.883,1.742-7.976,1.735-12.217-0.001-0.751-0.022-1.498-0.062-2.238-0.014-0.27-0.043-0.533-0.062-0.8-0.031-0.471-0.062-0.943-0.109-1.408-0.031-0.32-0.082-0.635-0.12-0.952-0.052-0.408-0.095-0.819-0.157-1.224-0.055-0.347-0.122-0.688-0.184-1.031-0.066-0.37-0.127-0.742-0.2-1.109-0.076-0.364-0.166-0.723-0.249-1.084-0.078-0.339-0.151-0.681-0.236-1.016-0.098-0.378-0.212-0.751-0.318-1.125-0.088-0.312-0.17-0.626-0.267-0.936-0.121-0.39-0.257-0.772-0.388-1.157-0.1-0.286-0.189-0.574-0.293-0.857-0.146-0.4-0.307-0.794-0.465-1.19-0.103-0.259-0.2-0.521-0.309-0.777-0.174-0.411-0.359-0.813-0.545-1.218-0.107-0.233-0.208-0.471-0.318-0.701-0.199-0.417-0.414-0.828-0.629-1.238-0.106-0.209-0.211-0.421-0.322-0.628-0.229-0.424-0.473-0.842-0.715-1.258-0.105-0.185-0.209-0.372-0.319-0.555-0.259-0.431-0.531-0.852-0.806-1.271-0.104-0.162-0.205-0.325-0.312-0.484-0.29-0.434-0.594-0.857-0.899-1.28-0.099-0.139-0.194-0.279-0.295-0.416-0.324-0.438-0.66-0.865-1-1.289-0.091-0.114-0.18-0.231-0.271-0.344-0.356-0.438-0.726-0.866-1.101-1.29-0.082-0.094-0.16-0.188-0.244-0.28-0.39-0.436-0.791-0.86-1.197-1.278-0.073-0.075-0.145-0.151-0.217-0.226-0.424-0.431-0.858-0.851-1.301-1.263-0.061-0.057-0.119-0.114-0.182-0.172-0.457-0.422-0.925-0.833-1.4-1.235-0.049-0.042-0.098-0.085-0.146-0.128-0.49-0.412-0.99-0.812-1.497-1.202-0.039-0.03-0.075-0.061-0.114-0.088-0.521-0.399-1.053-0.786-1.594-1.161-0.025-0.019-0.051-0.037-0.077-0.055-0.553-0.382-1.112-0.751-1.685-1.107-0.016-0.01-0.029-0.021-0.045-0.03-0.582-0.362-1.174-0.712-1.771-1.047-0.005-0.003-0.009-0.006-0.015-0.009-6.069-3.398-13.03-5.395-20.442-5.55-0.34-0.008-0.677-0.024-1.02-0.023-18.745,0.035-34.673,11.86-40.898,28.431-0.008-0.009-0.017-0.017-0.025-0.022-0.18,0.433-0.355,0.87-0.521,1.311-5.212-5.319-12.381-9.973-20.344-10.254,0.233-0.008,0.469-0.013,0.703-0.02-0.426-0.018-0.854-0.031-1.285-0.03-16.564,0.03-29.97,13.484-29.939,30.052,0.004,2.325,0.3,4.577,0.804,6.749-15.83,1.046-28.343,14.197-28.312,30.284,0.031,16.752,13.638,28.721,30.388,28.689l130.09-0.244c16.75-0.035,30.307-12.053,30.276-28.804z"/>
		<path id="path37" fill="#FFF" d="m251.69,347.02c-0.097,0-0.192,0.005-0.289,0.007,4.042,0.164,7.875,1.132,11.35,2.746-3.422-1.681-7.152-2.76-11.061-2.753z"/>
		<path id="path39" fill="#FFF" d="m271.62,355.85c-0.684-0.606-1.397-1.203-2.133-1.782,0.721,0.608,1.415,1.251,2.076,1.926,0.019-0.049,0.036-0.097,0.057-0.144z"/>
		<g id="g41" fill="#d1d2d1">
			<path id="path43" d="m271.56,355.99c-0.661-0.675-1.354-1.317-2.076-1.926-2.062-1.622-4.322-3.105-6.737-4.291-3.476-1.613-7.308-2.582-11.35-2.746-0.234,0.006-0.47,0.012-0.703,0.02,7.963,0.281,15.132,4.935,20.344,10.254,0.167-0.442,0.343-0.878,0.522-1.311z"/>
			<path id="path45" d="m356.77,383.53c1.117-3.883,1.744-7.976,1.737-12.217-0.046-24.2-19.698-43.779-43.897-43.732-0.368,0-0.735,0.013-1.104,0.023h0.003c7.414,0.155,14.374,2.147,20.443,5.55,0.006,0.003,0.01,0.005,0.015,0.009,0.6,0.335,1.189,0.685,1.771,1.047,0.016,0.009,0.029,0.021,0.045,0.03,0.57,0.356,1.132,0.725,1.685,1.107,0.026,0.018,0.052,0.036,0.077,0.055,0.541,0.376,1.072,0.762,1.594,1.161,0.039,0.027,0.075,0.059,0.114,0.088,0.507,0.39,1.008,0.79,1.497,1.202,0.05,0.042,0.1,0.085,0.146,0.128,0.477,0.402,0.943,0.813,1.4,1.235,0.062,0.057,0.121,0.115,0.182,0.172,0.441,0.412,0.877,0.832,1.301,1.263,0.072,0.073,0.144,0.15,0.217,0.226,0.406,0.419,0.809,0.843,1.197,1.278,0.084,0.092,0.162,0.188,0.244,0.279,0.375,0.425,0.742,0.854,1.101,1.29,0.092,0.113,0.181,0.23,0.271,0.345,0.34,0.423,0.676,0.851,1,1.289,0.101,0.137,0.196,0.277,0.295,0.416,0.307,0.422,0.609,0.846,0.899,1.28,0.106,0.16,0.206,0.323,0.312,0.484,0.273,0.42,0.547,0.841,0.806,1.271,0.11,0.184,0.212,0.371,0.319,0.556,0.242,0.416,0.485,0.833,0.715,1.258,0.111,0.207,0.216,0.419,0.322,0.628,0.215,0.411,0.43,0.82,0.629,1.238,0.11,0.23,0.211,0.468,0.318,0.701,0.186,0.404,0.371,0.807,0.545,1.218,0.107,0.256,0.204,0.52,0.309,0.776,0.158,0.396,0.318,0.79,0.465,1.191,0.104,0.283,0.193,0.571,0.293,0.857,0.131,0.385,0.267,0.768,0.388,1.157,0.097,0.31,0.179,0.623,0.267,0.936,0.106,0.374,0.222,0.746,0.318,1.125,0.085,0.335,0.158,0.677,0.236,1.016,0.083,0.362,0.173,0.72,0.249,1.084,0.073,0.367,0.134,0.739,0.2,1.109,0.062,0.344,0.129,0.685,0.184,1.031,0.062,0.404,0.105,0.814,0.157,1.224,0.038,0.317,0.089,0.632,0.12,0.952,0.049,0.465,0.076,0.938,0.109,1.408,0.02,0.267,0.049,0.53,0.062,0.8,0.039,0.74,0.061,1.486,0.062,2.238,0.007,4.241-0.618,8.334-1.735,12.217,15.996,0.812,28.744,13.988,28.775,30.195,0.031,16.752-13.525,28.771-30.273,28.802l-128.15,0.239c0.06,0,0.118,0.004,0.177,0.004l130.09-0.243c16.75-0.031,30.307-12.05,30.273-28.802-0.029-16.206-12.779-29.382-28.777-30.194z"/>
		</g>
		<path id="path47" fill="#FFF" d="m354.03,357.24c0.131,0.385,0.267,0.768,0.388,1.157-0.121-0.389-0.257-0.772-0.388-1.157z"/>
		<path id="path49" fill="#FFF" d="m355.24,361.47c0.083,0.362,0.173,0.721,0.249,1.084-0.076-0.365-0.166-0.722-0.249-1.084z"/>
		<path id="path51" fill="#FFF" d="m335.78,334.24c0.57,0.356,1.132,0.727,1.685,1.107-0.553-0.382-1.112-0.75-1.685-1.107z"/>
		<path id="path53" fill="#FFF" d="m337.54,335.4c0.541,0.375,1.072,0.762,1.594,1.161-0.522-0.399-1.053-0.785-1.594-1.161z"/>
		<path id="path55" fill="#FFF" d="m350.44,349.37c0.242,0.416,0.485,0.833,0.715,1.258-0.229-0.426-0.471-0.842-0.715-1.258z"/>
		<path id="path57" fill="#FFF" d="m333.96,333.16c0.6,0.335,1.189,0.685,1.771,1.047-0.582-0.362-1.174-0.712-1.771-1.047z"/>
		<path id="path59" fill="#FFF" d="m352.42,353.19c0.187,0.404,0.371,0.807,0.545,1.218-0.174-0.41-0.361-0.813-0.545-1.218z"/>
		<path id="path61" fill="#FFF" d="m353.28,355.19c0.158,0.396,0.318,0.79,0.465,1.191-0.144-0.401-0.306-0.795-0.465-1.191z"/>
		<path id="path63" fill="#FFF" d="m351.48,351.25c0.213,0.411,0.428,0.821,0.629,1.238-0.202-0.418-0.417-0.827-0.629-1.238z"/>
		<path id="path65" fill="#FFF" d="m313.51,327.61c7.412,0.155,14.373,2.151,20.442,5.55-6.069-3.402-13.029-5.394-20.442-5.55z"/>
		<path id="path67" fill="#FFF" d="m354.69,359.33c0.106,0.374,0.222,0.746,0.318,1.125-0.098-0.379-0.212-0.751-0.318-1.125z"/>
		<path id="path69" fill="#FFF" d="m343.99,340.88c0.406,0.418,0.809,0.843,1.197,1.278-0.388-0.435-0.791-0.859-1.197-1.278z"/>
		<path id="path71" fill="#FFF" d="m346.81,344.07c0.338,0.423,0.676,0.852,0.998,1.289-0.325-0.438-0.661-0.865-0.998-1.289z"/>
		<path id="path73" fill="#FFF" d="m356.03,365.92c0.038,0.317,0.089,0.632,0.12,0.952-0.031-0.32-0.082-0.635-0.12-0.952z"/>
		<path id="path75" fill="#FFF" d="m348.1,345.78c0.306,0.422,0.608,0.847,0.898,1.28-0.29-0.434-0.594-0.858-0.898-1.28z"/>
		<path id="path77" fill="#FFF" d="m345.44,342.44c0.373,0.425,0.742,0.854,1.1,1.29-0.358-0.438-0.727-0.867-1.1-1.29z"/>
		<path id="path79" fill="#FFF" d="m355.69,363.66c0.062,0.344,0.129,0.685,0.184,1.031-0.055-0.346-0.122-0.687-0.184-1.031z"/>
		<path id="path81" fill="#FFF" d="m339.25,336.65c0.507,0.39,1.007,0.79,1.497,1.202-0.489-0.413-0.99-0.812-1.497-1.202z"/>
		<path id="path83" fill="#FFF" d="m349.31,347.54c0.273,0.42,0.547,0.841,0.806,1.271-0.259-0.43-0.531-0.851-0.806-1.271z"/>
		<path id="path85" fill="#FFF" d="m342.48,339.39c0.44,0.412,0.877,0.832,1.299,1.263-0.424-0.431-0.859-0.851-1.299-1.263z"/>
		<path id="path87" fill="#FFF" d="m340.9,337.98c0.476,0.402,0.942,0.813,1.399,1.235-0.456-0.42-0.924-0.832-1.399-1.235z"/>
		<path id="path89" fill="#FFF" d="m356.26,368.28c0.019,0.267,0.047,0.53,0.062,0.8-0.015-0.268-0.045-0.533-0.062-0.8z"/>
	</g>
</g>
<g id="g91" transform="translate(-187.35484,-320.19355)">
		<linearGradient id="SVGID_3_" y2="390.65" gradientUnits="userSpaceOnUse" x2="181.63" gradientTransform="matrix(1,0,0,-1,116,787)" y1="390.65" x1="170.29">
		<stop id="stop94" stop-color="#636467" offset="0"/>
		<stop id="stop96" stop-color="#616264" offset="0.5153"/>
		<stop id="stop98" stop-color="#7E8083" offset="1"/>
	</linearGradient>
	<path id="path100" fill="url(#SVGID_3_)" d="m291.96,391.18c-2.849,0-5.166,2.318-5.166,5.167,0,2.85,2.317,5.166,5.166,5.166,2.85,0,5.168-2.316,5.168-5.166,0-2.849-2.318-5.167-5.168-5.167z"/>
	<g id="g102">
			<linearGradient id="SVGID_4_" y2="396.33" gradientUnits="userSpaceOnUse" x2="178.37" gradientTransform="matrix(1,0,0,-1,116,787)" y1="384.98" x1="173.55">
			<stop id="stop105" stop-color="#7E8083" offset="0"/>
			<stop id="stop107" stop-color="#E9E9EA" offset="0.9816"/>
		</linearGradient>
		<path id="path109" fill="url(#SVGID_4_)" d="m291.96,390.18c-3.4,0-6.166,2.767-6.166,6.167s2.766,6.166,6.166,6.166,6.168-2.766,6.168-6.166c0-3.402-2.768-6.167-6.168-6.167zm0,11.833c-3.129,0-5.666-2.537-5.666-5.666,0-3.13,2.537-5.667,5.666-5.667,3.131,0,5.668,2.537,5.668,5.667,0,3.129-2.537,5.666-5.668,5.666z"/>
	</g>
	<g id="g111">
			<linearGradient id="SVGID_5_" y2="395.87" gradientUnits="userSpaceOnUse" x2="178.17" gradientTransform="matrix(1,0,0,-1,116,787)" y1="385.44" x1="173.75">
			<stop id="stop114" stop-color="#7E8083" offset="0"/>
			<stop id="stop116" stop-color="#E9E9EA" offset="0.9816"/>
		</linearGradient>
		<path id="path118" fill="url(#SVGID_5_)" d="m291.96,390.68c-3.129,0-5.666,2.537-5.666,5.667,0,3.129,2.537,5.666,5.666,5.666,3.131,0,5.668-2.537,5.668-5.666,0-3.13-2.537-5.667-5.668-5.667zm0,10.833c-2.849,0-5.166-2.316-5.166-5.166,0-2.849,2.317-5.167,5.166-5.167,2.85,0,5.168,2.318,5.168,5.167s-2.318,5.166-5.168,5.166z"/>
	</g>
</g>
<g id="g120" transform="translate(-187.35484,-320.19355)">
	<g id="g122">
			<linearGradient id="SVGID_6_" y2="343.48" gradientUnits="userSpaceOnUse" x2="202.16" gradientTransform="matrix(1,0,0,-1,116,787)" y1="343.48" x1="186.98">
			<stop id="stop125" stop-color="#595959" offset="0"/>
			<stop id="stop127" stop-color="#585858" offset="0.0032"/>
			<stop id="stop129" stop-color="#4C4C4C" offset="0.0476"/>
			<stop id="stop131" stop-color="#444" offset="0.1073"/>
			<stop id="stop133" stop-color="#424242" offset="0.2454"/>
			<stop id="stop135" stop-color="#464646" offset="0.3661"/>
			<stop id="stop137" stop-color="#535353" offset="0.4907"/>
			<stop id="stop139" stop-color="#676767" offset="0.6171"/>
			<stop id="stop141" stop-color="#848484" offset="0.7447"/>
			<stop id="stop143" stop-color="#A9A9A9" offset="0.8724"/>
			<stop id="stop145" stop-color="#D6D6D6" offset="1"/>
		</linearGradient>
		<path id="path147" fill="url(#SVGID_6_)" d="m316.06,445.53c-5.811-9.733-12.2-17.109-12.2-17.109s-0.593,0.271-0.878,1.15c0,0,0.2,0.23,0.541,0.641,1.646,1.975,6.845,8.404,11.66,16.468,2.963,4.966,2.424,9.138,0.631,11.925,2.43-2.714,3.651-7.372,0.246-13.075z"/>
			<linearGradient id="SVGID_7_" y2="-360.82" gradientUnits="userSpaceOnUse" x2="-822.94" gradientTransform="matrix(0.9705,-0.2412,-0.2412,-0.9705,1026.8418,-104.8204)" y1="-360.82" x1="-839.87">
			<stop id="stop150" stop-color="#595959" offset="0"/>
			<stop id="stop152" stop-color="#585858" offset="0.0032"/>
			<stop id="stop154" stop-color="#4C4C4C" offset="0.0476"/>
			<stop id="stop156" stop-color="#444" offset="0.1073"/>
			<stop id="stop158" stop-color="#424242" offset="0.2454"/>
			<stop id="stop160" stop-color="#464646" offset="0.4313"/>
			<stop id="stop162" stop-color="#535353" offset="0.623"/>
			<stop id="stop164" stop-color="#676767" offset="0.8168"/>
			<stop id="stop166" stop-color="#828282" offset="1"/>
		</linearGradient>
		<path id="path168" fill="url(#SVGID_7_)" d="m315.18,446.68c-4.814-8.062-10.555-15.134-12.201-17.107,0,0-1.867,9.143-2.769,20.829-0.75,9.714,6.744,12.814,10.876,11.788,1.682-0.418,3.496-1.678,4.725-3.585,1.791-2.789,2.332-6.961-0.631-11.925z"/>
			<linearGradient id="SVGID_8_" y2="348.87" gradientUnits="userSpaceOnUse" x2="199.18" gradientTransform="matrix(1,0,0,-1,116,787)" y1="348.87" x1="186.98">
			<stop id="stop171" stop-color="#595959" offset="0"/>
			<stop id="stop173" stop-color="#585858" offset="0.0032"/>
			<stop id="stop175" stop-color="#4C4C4C" offset="0.0476"/>
			<stop id="stop177" stop-color="#444" offset="0.1073"/>
			<stop id="stop179" stop-color="#424242" offset="0.2454"/>
			<stop id="stop181" stop-color="#464646" offset="0.4313"/>
			<stop id="stop183" stop-color="#535353" offset="0.623"/>
			<stop id="stop185" stop-color="#676767" offset="0.8168"/>
			<stop id="stop187" stop-color="#828282" offset="1"/>
		</linearGradient>
		<path id="path189" fill="url(#SVGID_8_)" d="m303.52,430.22c-0.341-0.409-0.541-0.641-0.541-0.641,1.646,1.975,7.386,9.045,12.2,17.107-4.814-8.062-10.013-14.493-11.659-16.466z"/>
			<linearGradient id="SVGID_9_" y2="-353.79" gradientUnits="userSpaceOnUse" x2="-822.94" gradientTransform="matrix(0.9705,-0.2412,-0.2412,-0.9705,1026.8418,-104.8204)" y1="-353.79" x1="-839.87">
			<stop id="stop192" stop-color="#595959" offset="0"/>
			<stop id="stop194" stop-color="#585858" offset="0.0032"/>
			<stop id="stop196" stop-color="#4C4C4C" offset="0.0476"/>
			<stop id="stop198" stop-color="#444" offset="0.1073"/>
			<stop id="stop200" stop-color="#424242" offset="0.2454"/>
			<stop id="stop202" stop-color="#464646" offset="0.4313"/>
			<stop id="stop204" stop-color="#535353" offset="0.623"/>
			<stop id="stop206" stop-color="#676767" offset="0.8168"/>
			<stop id="stop208" stop-color="#828282" offset="1"/>
		</linearGradient>
		<path id="path210" fill="url(#SVGID_9_)" d="m303.52,430.22c-0.341-0.409-0.541-0.641-0.541-0.641,1.646,1.975,7.386,9.045,12.2,17.107-4.814-8.062-10.013-14.493-11.659-16.466z"/>
	</g>
</g>
<g id="g212" transform="translate(-187.35484,-320.19355)">
	<g id="g214">
			<linearGradient id="SVGID_10_" y2="357.59" gradientUnits="userSpaceOnUse" x2="150.09" gradientTransform="matrix(1,0,0,-1,116,787)" y1="357.59" x1="134.92">
			<stop id="stop217" stop-color="#595959" offset="0"/>
			<stop id="stop219" stop-color="#585858" offset="0.0032"/>
			<stop id="stop221" stop-color="#4C4C4C" offset="0.0476"/>
			<stop id="stop223" stop-color="#444" offset="0.1073"/>
			<stop id="stop225" stop-color="#424242" offset="0.2454"/>
			<stop id="stop227" stop-color="#464646" offset="0.3661"/>
			<stop id="stop229" stop-color="#535353" offset="0.4907"/>
			<stop id="stop231" stop-color="#676767" offset="0.6171"/>
			<stop id="stop233" stop-color="#848484" offset="0.7447"/>
			<stop id="stop235" stop-color="#A9A9A9" offset="0.8724"/>
			<stop id="stop237" stop-color="#D6D6D6" offset="1"/>
		</linearGradient>
		<path id="path239" fill="url(#SVGID_10_)" d="m263.99,431.43c-5.811-9.732-12.2-17.108-12.2-17.108s-0.593,0.271-0.878,1.149c0,0,0.2,0.231,0.542,0.642,1.645,1.974,6.845,8.403,11.659,16.468,2.963,4.964,2.424,9.137,0.631,11.924,2.43-2.715,3.651-7.372,0.246-13.075z"/>
			<linearGradient id="SVGID_11_" y2="-334.58" gradientUnits="userSpaceOnUse" x2="-870.07" gradientTransform="matrix(0.9705,-0.2412,-0.2412,-0.9705,1026.8418,-104.8204)" y1="-334.58" x1="-887">
			<stop id="stop242" stop-color="#595959" offset="0"/>
			<stop id="stop244" stop-color="#585858" offset="0.0032"/>
			<stop id="stop246" stop-color="#4C4C4C" offset="0.0476"/>
			<stop id="stop248" stop-color="#444" offset="0.1073"/>
			<stop id="stop250" stop-color="#424242" offset="0.2454"/>
			<stop id="stop252" stop-color="#464646" offset="0.4313"/>
			<stop id="stop254" stop-color="#535353" offset="0.623"/>
			<stop id="stop256" stop-color="#676767" offset="0.8168"/>
			<stop id="stop258" stop-color="#828282" offset="1"/>
		</linearGradient>
		<path id="path260" fill="url(#SVGID_11_)" d="m263.12,432.58c-4.814-8.063-10.554-15.134-12.201-17.108,0,0-1.867,9.144-2.769,20.829-0.75,9.714,6.744,12.815,10.877,11.788,1.681-0.418,3.496-1.677,4.724-3.585,1.793-2.787,2.333-6.96-0.631-11.924z"/>
			<linearGradient id="SVGID_12_" y2="362.98" gradientUnits="userSpaceOnUse" x2="147.12" gradientTransform="matrix(1,0,0,-1,116,787)" y1="362.98" x1="134.91">
			<stop id="stop263" stop-color="#595959" offset="0"/>
			<stop id="stop265" stop-color="#585858" offset="0.0032"/>
			<stop id="stop267" stop-color="#4C4C4C" offset="0.0476"/>
			<stop id="stop269" stop-color="#444" offset="0.1073"/>
			<stop id="stop271" stop-color="#424242" offset="0.2454"/>
			<stop id="stop273" stop-color="#464646" offset="0.4313"/>
			<stop id="stop275" stop-color="#535353" offset="0.623"/>
			<stop id="stop277" stop-color="#676767" offset="0.8168"/>
			<stop id="stop279" stop-color="#828282" offset="1"/>
		</linearGradient>
		<path id="path281" fill="url(#SVGID_12_)" d="m251.46,416.11c-0.342-0.409-0.542-0.642-0.542-0.642,1.646,1.976,7.386,9.045,12.201,17.108-4.814-8.061-10.014-14.492-11.659-16.466z"/>
			<linearGradient id="SVGID_13_" y2="-327.55" gradientUnits="userSpaceOnUse" x2="-870.07" gradientTransform="matrix(0.9705,-0.2412,-0.2412,-0.9705,1026.8418,-104.8204)" y1="-327.55" x1="-887">
			<stop id="stop284" stop-color="#595959" offset="0"/>
			<stop id="stop286" stop-color="#585858" offset="0.0032"/>
			<stop id="stop288" stop-color="#4C4C4C" offset="0.0476"/>
			<stop id="stop290" stop-color="#444" offset="0.1073"/>
			<stop id="stop292" stop-color="#424242" offset="0.2454"/>
			<stop id="stop294" stop-color="#464646" offset="0.4313"/>
			<stop id="stop296" stop-color="#535353" offset="0.623"/>
			<stop id="stop298" stop-color="#676767" offset="0.8168"/>
			<stop id="stop300" stop-color="#828282" offset="1"/>
		</linearGradient>
		<path id="path302" fill="url(#SVGID_13_)" d="m251.46,416.11c-0.342-0.409-0.542-0.642-0.542-0.642,1.646,1.976,7.386,9.045,12.201,17.108-4.814-8.061-10.014-14.492-11.659-16.466z"/>
	</g>
</g>
<g id="g304" transform="translate(-187.35484,-320.19355)">
	<g id="g306">
			<linearGradient id="SVGID_14_" y2="315" gradientUnits="userSpaceOnUse" x2="239.48" gradientTransform="matrix(1,0,0,-1,116,787)" y1="315" x1="224.31">
			<stop id="stop309" stop-color="#595959" offset="0"/>
			<stop id="stop311" stop-color="#585858" offset="0.0032"/>
			<stop id="stop313" stop-color="#4C4C4C" offset="0.0476"/>
			<stop id="stop315" stop-color="#444" offset="0.1073"/>
			<stop id="stop317" stop-color="#424242" offset="0.2454"/>
			<stop id="stop319" stop-color="#464646" offset="0.3661"/>
			<stop id="stop321" stop-color="#535353" offset="0.4907"/>
			<stop id="stop323" stop-color="#676767" offset="0.6171"/>
			<stop id="stop325" stop-color="#848484" offset="0.7447"/>
			<stop id="stop327" stop-color="#A9A9A9" offset="0.8724"/>
			<stop id="stop329" stop-color="#D6D6D6" offset="1"/>
		</linearGradient>
		<path id="path331" fill="url(#SVGID_14_)" d="m353.39,474.01c-5.811-9.731-12.198-17.108-12.198-17.108s-0.595,0.271-0.879,1.149c0,0,0.199,0.231,0.541,0.642,1.646,1.975,6.846,8.404,11.659,16.468,2.964,4.965,2.425,9.138,0.632,11.924,2.429-2.714,3.65-7.372,0.245-13.075z"/>
			<linearGradient id="SVGID_15_" y2="-397.46" gradientUnits="userSpaceOnUse" x2="-793.59" gradientTransform="matrix(0.9705,-0.2412,-0.2412,-0.9705,1026.8418,-104.8204)" y1="-397.46" x1="-810.51">
			<stop id="stop334" stop-color="#595959" offset="0"/>
			<stop id="stop336" stop-color="#585858" offset="0.0032"/>
			<stop id="stop338" stop-color="#4C4C4C" offset="0.0476"/>
			<stop id="stop340" stop-color="#444" offset="0.1073"/>
			<stop id="stop342" stop-color="#424242" offset="0.2454"/>
			<stop id="stop344" stop-color="#464646" offset="0.4313"/>
			<stop id="stop346" stop-color="#535353" offset="0.623"/>
			<stop id="stop348" stop-color="#676767" offset="0.8168"/>
			<stop id="stop350" stop-color="#828282" offset="1"/>
		</linearGradient>
		<path id="path352" fill="url(#SVGID_15_)" d="m352.51,475.16c-4.813-8.062-10.555-15.134-12.2-17.108,0,0-1.867,9.144-2.77,20.829-0.75,9.714,6.744,12.815,10.877,11.788,1.682-0.417,3.496-1.676,4.725-3.585,1.793-2.786,2.332-6.959-0.632-11.924z"/>
			<linearGradient id="SVGID_16_" y2="320.39" gradientUnits="userSpaceOnUse" x2="236.51" gradientTransform="matrix(1,0,0,-1,116,787)" y1="320.39" x1="224.31">
			<stop id="stop355" stop-color="#595959" offset="0"/>
			<stop id="stop357" stop-color="#585858" offset="0.0032"/>
			<stop id="stop359" stop-color="#4C4C4C" offset="0.0476"/>
			<stop id="stop361" stop-color="#444" offset="0.1073"/>
			<stop id="stop363" stop-color="#424242" offset="0.2454"/>
			<stop id="stop365" stop-color="#464646" offset="0.4313"/>
			<stop id="stop367" stop-color="#535353" offset="0.623"/>
			<stop id="stop369" stop-color="#676767" offset="0.8168"/>
			<stop id="stop371" stop-color="#828282" offset="1"/>
		</linearGradient>
		<path id="path373" fill="url(#SVGID_16_)" d="m340.85,458.7c-0.342-0.409-0.541-0.642-0.541-0.642,1.646,1.976,7.387,9.046,12.2,17.108-4.816-8.06-10.015-14.491-11.659-16.466z"/>
			<linearGradient id="SVGID_17_" y2="-390.43" gradientUnits="userSpaceOnUse" x2="-793.59" gradientTransform="matrix(0.9705,-0.2412,-0.2412,-0.9705,1026.8418,-104.8204)" y1="-390.43" x1="-810.52">
			<stop id="stop376" stop-color="#595959" offset="0"/>
			<stop id="stop378" stop-color="#585858" offset="0.0032"/>
			<stop id="stop380" stop-color="#4C4C4C" offset="0.0476"/>
			<stop id="stop382" stop-color="#444" offset="0.1073"/>
			<stop id="stop384" stop-color="#424242" offset="0.2454"/>
			<stop id="stop386" stop-color="#464646" offset="0.4313"/>
			<stop id="stop388" stop-color="#535353" offset="0.623"/>
			<stop id="stop390" stop-color="#676767" offset="0.8168"/>
			<stop id="stop392" stop-color="#828282" offset="1"/>
		</linearGradient>
		<path id="path394" fill="url(#SVGID_17_)" d="m340.85,458.7c-0.342-0.409-0.541-0.642-0.541-0.642,1.646,1.976,7.387,9.046,12.2,17.108-4.816-8.06-10.015-14.491-11.659-16.466z"/>
	</g>
</g>
<g id="g396" transform="translate(-187.35484,-320.19355)">
	<g id="g398">
			<linearGradient id="SVGID_18_" y2="312.87" gradientUnits="userSpaceOnUse" x2="175.68" gradientTransform="matrix(1,0,0,-1,116,787)" y1="312.87" x1="160.5">
			<stop id="stop401" stop-color="#595959" offset="0"/>
			<stop id="stop403" stop-color="#585858" offset="0.0032"/>
			<stop id="stop405" stop-color="#4C4C4C" offset="0.0476"/>
			<stop id="stop407" stop-color="#444" offset="0.1073"/>
			<stop id="stop409" stop-color="#424242" offset="0.2454"/>
			<stop id="stop411" stop-color="#464646" offset="0.3661"/>
			<stop id="stop413" stop-color="#535353" offset="0.4907"/>
			<stop id="stop415" stop-color="#676767" offset="0.6171"/>
			<stop id="stop417" stop-color="#848484" offset="0.7447"/>
			<stop id="stop419" stop-color="#A9A9A9" offset="0.8724"/>
			<stop id="stop421" stop-color="#D6D6D6" offset="1"/>
		</linearGradient>
		<path id="path423" fill="url(#SVGID_18_)" d="m289.58,476.15c-5.811-9.733-12.2-17.109-12.2-17.109s-0.593,0.271-0.878,1.15c0,0,0.2,0.229,0.542,0.641,1.645,1.974,6.845,8.404,11.659,16.468,2.963,4.964,2.424,9.137,0.631,11.924,2.43-2.713,3.651-7.37,0.246-13.074z"/>
			<linearGradient id="SVGID_19_" y2="-384.15" gradientUnits="userSpaceOnUse" x2="-856.02" gradientTransform="matrix(0.9705,-0.2412,-0.2412,-0.9705,1026.8418,-104.8204)" y1="-384.15" x1="-872.95">
			<stop id="stop426" stop-color="#595959" offset="0"/>
			<stop id="stop428" stop-color="#585858" offset="0.0032"/>
			<stop id="stop430" stop-color="#4C4C4C" offset="0.0476"/>
			<stop id="stop432" stop-color="#444" offset="0.1073"/>
			<stop id="stop434" stop-color="#424242" offset="0.2454"/>
			<stop id="stop436" stop-color="#464646" offset="0.4313"/>
			<stop id="stop438" stop-color="#535353" offset="0.623"/>
			<stop id="stop440" stop-color="#676767" offset="0.8168"/>
			<stop id="stop442" stop-color="#828282" offset="1"/>
		</linearGradient>
		<path id="path444" fill="url(#SVGID_19_)" d="m288.7,477.3c-4.814-8.062-10.554-15.134-12.201-17.107,0,0-1.867,9.143-2.769,20.829-0.75,9.713,6.744,12.814,10.877,11.787,1.681-0.418,3.496-1.677,4.724-3.585,1.793-2.786,2.332-6.96-0.631-11.924z"/>
			<linearGradient id="SVGID_20_" y2="318.25" gradientUnits="userSpaceOnUse" x2="172.71" gradientTransform="matrix(1,0,0,-1,116,787)" y1="318.25" x1="160.5">
			<stop id="stop447" stop-color="#595959" offset="0"/>
			<stop id="stop449" stop-color="#585858" offset="0.0032"/>
			<stop id="stop451" stop-color="#4C4C4C" offset="0.0476"/>
			<stop id="stop453" stop-color="#444" offset="0.1073"/>
			<stop id="stop455" stop-color="#424242" offset="0.2454"/>
			<stop id="stop457" stop-color="#464646" offset="0.4313"/>
			<stop id="stop459" stop-color="#535353" offset="0.623"/>
			<stop id="stop461" stop-color="#676767" offset="0.8168"/>
			<stop id="stop463" stop-color="#828282" offset="1"/>
		</linearGradient>
		<path id="path465" fill="url(#SVGID_20_)" d="m277.05,460.83c-0.342-0.41-0.542-0.641-0.542-0.641,1.646,1.975,7.386,9.045,12.201,17.107-4.814-8.062-10.014-14.492-11.659-16.466z"/>
			<linearGradient id="SVGID_21_" y2="-377.12" gradientUnits="userSpaceOnUse" x2="-856.02" gradientTransform="matrix(0.9705,-0.2412,-0.2412,-0.9705,1026.8418,-104.8204)" y1="-377.12" x1="-872.95">
			<stop id="stop468" stop-color="#595959" offset="0"/>
			<stop id="stop470" stop-color="#585858" offset="0.0032"/>
			<stop id="stop472" stop-color="#4C4C4C" offset="0.0476"/>
			<stop id="stop474" stop-color="#444" offset="0.1073"/>
			<stop id="stop476" stop-color="#424242" offset="0.2454"/>
			<stop id="stop478" stop-color="#464646" offset="0.4313"/>
			<stop id="stop480" stop-color="#535353" offset="0.623"/>
			<stop id="stop482" stop-color="#676767" offset="0.8168"/>
			<stop id="stop484" stop-color="#828282" offset="1"/>
		</linearGradient>
		<path id="path486" fill="url(#SVGID_21_)" d="m277.05,460.83c-0.342-0.41-0.542-0.641-0.542-0.641,1.646,1.975,7.386,9.045,12.201,17.107-4.814-8.062-10.014-14.492-11.659-16.466z"/>
	</g>
</g>
<g id="g488" transform="translate(-187.35484,-320.19355)">
	<g id="g490">
			<linearGradient id="SVGID_22_" y2="370.79" gradientUnits="userSpaceOnUse" x2="231.36" gradientTransform="matrix(1,0,0,-1,116,787)" y1="370.79" x1="216.19">
			<stop id="stop493" stop-color="#595959" offset="0"/>
			<stop id="stop495" stop-color="#585858" offset="0.0032"/>
			<stop id="stop497" stop-color="#4C4C4C" offset="0.0476"/>
			<stop id="stop499" stop-color="#444" offset="0.1073"/>
			<stop id="stop501" stop-color="#424242" offset="0.2454"/>
			<stop id="stop503" stop-color="#464646" offset="0.3661"/>
			<stop id="stop505" stop-color="#535353" offset="0.4907"/>
			<stop id="stop507" stop-color="#676767" offset="0.6171"/>
			<stop id="stop509" stop-color="#848484" offset="0.7447"/>
			<stop id="stop511" stop-color="#A9A9A9" offset="0.8724"/>
			<stop id="stop513" stop-color="#D6D6D6" offset="1"/>
		</linearGradient>
		<path id="path515" fill="url(#SVGID_22_)" d="m345.26,418.23c-5.811-9.732-12.199-17.108-12.199-17.108s-0.594,0.271-0.879,1.149c0,0,0.201,0.231,0.541,0.642,1.646,1.974,6.847,8.404,11.66,16.468,2.963,4.965,2.424,9.137,0.631,11.924,2.43-2.715,3.651-7.372,0.246-13.075z"/>
			<linearGradient id="SVGID_23_" y2="-341.37" gradientUnits="userSpaceOnUse" x2="-788.01" gradientTransform="matrix(0.9705,-0.2412,-0.2412,-0.9705,1026.8418,-104.8204)" y1="-341.37" x1="-804.94">
			<stop id="stop518" stop-color="#595959" offset="0"/>
			<stop id="stop520" stop-color="#585858" offset="0.0032"/>
			<stop id="stop522" stop-color="#4C4C4C" offset="0.0476"/>
			<stop id="stop524" stop-color="#444" offset="0.1073"/>
			<stop id="stop526" stop-color="#424242" offset="0.2454"/>
			<stop id="stop528" stop-color="#464646" offset="0.4313"/>
			<stop id="stop530" stop-color="#535353" offset="0.623"/>
			<stop id="stop532" stop-color="#676767" offset="0.8168"/>
			<stop id="stop534" stop-color="#828282" offset="1"/>
		</linearGradient>
		<path id="path536" fill="url(#SVGID_23_)" d="m344.39,419.38c-4.813-8.062-10.555-15.134-12.201-17.108,0,0-1.865,9.144-2.769,20.829-0.75,9.714,6.744,12.815,10.877,11.788,1.681-0.418,3.495-1.677,4.724-3.585,1.793-2.787,2.332-6.959-0.631-11.924z"/>
			<linearGradient id="SVGID_24_" y2="376.18" gradientUnits="userSpaceOnUse" x2="228.39" gradientTransform="matrix(1,0,0,-1,116,787)" y1="376.18" x1="216.19">
			<stop id="stop539" stop-color="#595959" offset="0"/>
			<stop id="stop541" stop-color="#585858" offset="0.0032"/>
			<stop id="stop543" stop-color="#4C4C4C" offset="0.0476"/>
			<stop id="stop545" stop-color="#444" offset="0.1073"/>
			<stop id="stop547" stop-color="#424242" offset="0.2454"/>
			<stop id="stop549" stop-color="#464646" offset="0.4313"/>
			<stop id="stop551" stop-color="#535353" offset="0.623"/>
			<stop id="stop553" stop-color="#676767" offset="0.8168"/>
			<stop id="stop555" stop-color="#828282" offset="1"/>
		</linearGradient>
		<path id="path557" fill="url(#SVGID_24_)" d="m332.73,402.91c-0.341-0.409-0.541-0.642-0.541-0.642,1.646,1.976,7.388,9.047,12.201,17.108-4.815-8.061-10.015-14.492-11.66-16.466z"/>
			<linearGradient id="SVGID_25_" y2="-334.33" gradientUnits="userSpaceOnUse" x2="-788.01" gradientTransform="matrix(0.9705,-0.2412,-0.2412,-0.9705,1026.8418,-104.8204)" y1="-334.33" x1="-804.95">
			<stop id="stop560" stop-color="#595959" offset="0"/>
			<stop id="stop562" stop-color="#585858" offset="0.0032"/>
			<stop id="stop564" stop-color="#4C4C4C" offset="0.0476"/>
			<stop id="stop566" stop-color="#444" offset="0.1073"/>
			<stop id="stop568" stop-color="#424242" offset="0.2454"/>
			<stop id="stop570" stop-color="#464646" offset="0.4313"/>
			<stop id="stop572" stop-color="#535353" offset="0.623"/>
			<stop id="stop574" stop-color="#676767" offset="0.8168"/>
			<stop id="stop576" stop-color="#828282" offset="1"/>
		</linearGradient>
		<path id="path578" fill="url(#SVGID_25_)" d="m332.73,402.91c-0.341-0.409-0.541-0.642-0.541-0.642,1.646,1.976,7.388,9.047,12.201,17.108-4.815-8.061-10.015-14.492-11.66-16.466z"/>
	</g>
</g>
</svg>
