<?xml version="1.0" encoding="UTF-8" standalone="no"?>
<!-- Created with Inkscape (http://www.inkscape.org/) -->

<svg
   xmlns:dc="http://purl.org/dc/elements/1.1/"
   xmlns:cc="http://creativecommons.org/ns#"
   xmlns:rdf="http://www.w3.org/1999/02/22-rdf-syntax-ns#"
   xmlns:svg="http://www.w3.org/2000/svg"
   xmlns="http://www.w3.org/2000/svg"
   version="1.1"
   width="133"
   height="470"
   viewBox="0 0 133 470"
   id="Layer_1"
   xml:space="preserve"><metadata
   id="metadata3292"><rdf:RDF><cc:Work
       rdf:about=""><dc:format>image/svg+xml</dc:format><dc:type
         rdf:resource="http://purl.org/dc/dcmitype/StillImage" /><dc:title></dc:title></cc:Work></rdf:RDF></metadata><defs
   id="defs3290" />
<g
   transform="translate(-240,-130)"
   id="g3225">
	
		<linearGradient
   x1="74.000999"
   y1="415.33401"
   x2="74.000999"
   y2="14.6675"
   id="SVGID_1_"
   gradientUnits="userSpaceOnUse"
   gradientTransform="translate(232,181)">
		<stop
   id="stop3228"
   style="stop-color:#d9b16d;stop-opacity:1"
   offset="0" />
		<stop
   id="stop3230"
   style="stop-color:#d6af6b;stop-opacity:1"
   offset="0.43009999" />
		<stop
   id="stop3232"
   style="stop-color:#cda765;stop-opacity:1"
   offset="0.58499998" />
		<stop
   id="stop3234"
   style="stop-color:#bf9b5b;stop-opacity:1"
   offset="0.6954" />
		<stop
   id="stop3236"
   style="stop-color:#ac8b4e;stop-opacity:1"
   offset="0.78469998" />
		<stop
   id="stop3238"
   style="stop-color:#95783d;stop-opacity:1"
   offset="0.86119998" />
		<stop
   id="stop3240"
   style="stop-color:#79612b;stop-opacity:1"
   offset="0.9289" />
		<stop
   id="stop3242"
   style="stop-color:#5d4b1a;stop-opacity:1"
   offset="0.98860002" />
		<stop
   id="stop3244"
   style="stop-color:#574616;stop-opacity:1"
   offset="1" />
	</linearGradient>
	<rect
   width="7.3070002"
   height="400.66699"
   x="302.34698"
   y="195.66701"
   id="rect3246"
   style="fill:url(#SVGID_1_)" />
	<rect
   width="7.3070002"
   height="400.66699"
   x="302.34698"
   y="195.66701"
   id="rect3248"
   style="fill:none;stroke:#847256;stroke-miterlimit:10" />
</g>
<g
   transform="translate(-240,-130)"
   id="g3250">
	<g
   id="g3252">
		
			<radialGradient
   cx="-282.28271"
   cy="115.8779"
   r="55.718899"
   id="SVGID_2_"
   gradientUnits="userSpaceOnUse"
   gradientTransform="matrix(0.9929,-0.1193,-0.1193,-0.9929,607.6305,265.4225)">
			<stop
   id="stop3255"
   style="stop-color:#fff8a7;stop-opacity:1"
   offset="0" />
			<stop
   id="stop3257"
   style="stop-color:#ffdb00;stop-opacity:1"
   offset="1" />
		</radialGradient>
		<path
   d="m 368.392,184.591 -0.232,-1.947 0.258,-0.031 -0.002,-0.018 -12.547,1.508 c 0.002,0.006 0.004,0.012 0.005,0.018 l -2.979,0.358 c -0.003,-0.014 -0.007,-0.026 -0.011,-0.039 l -0.118,0.014 c -0.597,-2.503 -1.386,-4.92 -2.346,-7.242 l 13.429,-7.478 -4.229,-7.594 0.088,-0.049 -0.584,-1.048 0.218,-0.121 -0.513,-0.921 -13.425,7.476 c -0.018,-0.023 -0.034,-0.044 -0.05,-0.066 l -0.207,0.115 c -0.019,-0.023 -0.035,-0.045 -0.052,-0.067 l -0.078,0.042 c -1.569,-2.18 -3.319,-4.214 -5.218,-6.092 l 9.28,-11.817 0.092,0.071 0.256,-0.325 -7.069,-5.553 0.121,-0.155 -1.532,-1.204 -9.499,12.094 c -0.049,-0.03 -0.101,-0.056 -0.149,-0.086 l -0.105,0.135 c -1.581,-0.972 -3.22,-1.851 -4.906,-2.637 l -0.01,0.034 c -0.656,-0.309 -1.318,-0.606 -1.99,-0.885 l 3.86,-13.567 0.127,0.036 0.35,-1.228 -8.024,-2.285 0.032,-0.113 -2.437,-0.694 -4.208,14.782 c -0.077,-0.013 -0.155,-0.021 -0.233,-0.033 l -0.023,0.082 c -2.61,-0.425 -5.282,-0.641 -7.995,-0.626 l -0.005,-0.021 c -0.041,0 -0.083,-0.003 -0.125,-0.002 l -1.596,-13.279 0.123,-0.015 -0.234,-1.947 0.261,-0.032 -0.002,-0.018 -11.031,1.325 1.834,15.265 c -2.504,0.595 -4.92,1.384 -7.242,2.345 l -0.021,-0.039 c -0.077,0.032 -0.157,0.057 -0.234,0.088 l -6.924,-12.434 0.217,-0.121 -0.514,-0.921 -9.707,5.406 7.475,13.423 c -2.18,1.571 -4.213,3.319 -6.092,5.217 l -0.113,-0.089 c -0.047,0.047 -0.097,0.092 -0.144,0.139 l -10.425,-8.188 0.12,-0.155 -1.532,-1.205 -6.863,8.738 12.094,9.499 c -1.326,2.159 -2.485,4.423 -3.463,6.777 l -0.212,-0.056 c -0.016,0.036 -0.033,0.072 -0.049,0.108 l -12.121,-3.451 0.031,-0.114 -2.437,-0.693 -3.043,10.686 14.782,4.208 c -0.426,2.612 -0.643,5.284 -0.627,7.998 l -15.266,1.834 1.326,11.031 1.365,-0.164 -0.005,-0.039 13.776,-1.656 c 0.002,0.014 0.006,0.025 0.01,0.039 l 0.118,-0.016 c 0.597,2.504 1.386,4.922 2.345,7.241 l -13.428,7.479 5.405,9.706 0.464,-0.257 -0.041,-0.074 1.746,-0.971 -0.039,-0.072 10.909,-6.076 c 0.017,0.023 0.033,0.044 0.051,0.066 l 0.206,-0.115 c 0.018,0.022 0.034,0.045 0.052,0.066 l 0.077,-0.043 c 1.569,2.182 3.319,4.215 5.217,6.092 l -9.498,12.095 8.646,6.79 1.188,-1.512 -0.135,-0.106 8.15,-10.378 c 0.033,0.021 0.067,0.039 0.102,0.059 l 0.026,-0.034 c 0.018,0.01 0.033,0.02 0.05,0.028 l 0.079,-0.103 c 0.033,0.021 0.067,0.039 0.102,0.06 l 0.028,-0.035 c 2.157,1.326 4.423,2.486 6.776,3.466 l -4.209,14.782 10.562,3.006 0.284,-1.002 -0.225,-0.063 3.886,-13.653 c 0.078,0.013 0.157,0.02 0.234,0.03 l 0.023,-0.08 c 2.61,0.425 5.282,0.641 7.995,0.626 l 0.002,0.022 c 0.044,-0.001 0.084,0.002 0.128,0.002 l 1.834,15.264 1.364,-0.164 -0.004,-0.039 9.283,-1.115 -1.833,-15.245 c 2.503,-0.597 4.921,-1.386 7.241,-2.347 l 0.022,0.043 c 0.077,-0.032 0.156,-0.06 0.233,-0.092 l 0.034,0.061 c 0.03,-0.012 0.062,-0.022 0.095,-0.035 l 7.479,13.427 0.463,-0.257 -0.041,-0.073 1.746,-0.973 -0.04,-0.07 7.192,-4.006 -7.476,-13.424 c 2.181,-1.57 4.214,-3.32 6.093,-5.22 l 0.085,0.066 c 0.014,-0.014 0.029,-0.027 0.044,-0.043 l 0.028,0.022 c 0.033,-0.031 0.065,-0.062 0.1,-0.096 l 0.084,0.066 c 0.017,-0.016 0.029,-0.029 0.045,-0.043 l 12.004,9.428 1.188,-1.513 -0.134,-0.106 5.296,-6.742 0.091,0.07 0.256,-0.326 -10.283,-8.076 c -0.011,0.019 -0.021,0.035 -0.03,0.054 l -1.909,-1.499 c 1.326,-2.158 2.486,-4.423 3.465,-6.776 l 0.123,0.035 c 0.002,-0.004 0.004,-0.008 0.006,-0.012 l 0.084,0.022 c 0.014,-0.031 0.029,-0.063 0.043,-0.097 l 0.125,0.035 c 0,-0.004 0.003,-0.008 0.004,-0.012 l 14.658,4.173 0.285,-1.002 -0.225,-0.063 2.374,-8.343 0.125,0.035 0.351,-1.229 -13.001,-3.699 c -0.001,0.004 -0.001,0.008 -0.001,0.012 l -1.908,-0.543 c 0.426,-2.611 0.642,-5.283 0.627,-7.998 l 0.256,-0.03 c 0,-0.006 0,-0.012 0,-0.019 l 15.007,-1.804 -1.085,-9.027 0.129,-0.012 z"
   id="path3259"
   style="fill:url(#SVGID_2_)" />
	</g>
</g>
<linearGradient
   x1="184.33591"
   y1="591.33112"
   x2="195.67"
   y2="591.33112"
   id="SVGID_3_"
   gradientUnits="userSpaceOnUse"
   gradientTransform="matrix(1,0,0,-1,-124,657)">
	<stop
   id="stop3262"
   style="stop-color:#636467;stop-opacity:1"
   offset="0" />
	<stop
   id="stop3264"
   style="stop-color:#616264;stop-opacity:1"
   offset="0.51529998" />
	<stop
   id="stop3266"
   style="stop-color:#7e8083;stop-opacity:1"
   offset="1" />
</linearGradient>
<path
   d="m 66.003,60.501 c -2.849,0 -5.167,2.318 -5.167,5.167 0,2.849 2.318,5.167 5.167,5.167 2.849,0 5.167,-2.317 5.167,-5.167 0,-2.849 -2.318,-5.167 -5.167,-5.167 z"
   id="path3268"
   style="fill:url(#SVGID_3_)" />
<g
   transform="translate(-240,-130)"
   id="g3270">
	
		<linearGradient
   x1="187.5928"
   y1="585.65332"
   x2="192.41251"
   y2="597.00769"
   id="SVGID_4_"
   gradientUnits="userSpaceOnUse"
   gradientTransform="matrix(1,0,0,-1,116,787)">
		<stop
   id="stop3273"
   style="stop-color:#7e8083;stop-opacity:1"
   offset="0" />
		<stop
   id="stop3275"
   style="stop-color:#e9e9ea;stop-opacity:1"
   offset="0.98159999" />
	</linearGradient>
	<path
   d="m 306.003,189.501 c -3.4,0 -6.167,2.766 -6.167,6.167 0,3.4 2.767,6.167 6.167,6.167 3.4,0 6.167,-2.767 6.167,-6.167 0,-3.401 -2.767,-6.167 -6.167,-6.167 z m 0,11.833 c -3.13,0 -5.667,-2.537 -5.667,-5.667 0,-3.129 2.537,-5.667 5.667,-5.667 3.13,0 5.667,2.537 5.667,5.667 0,3.131 -2.537,5.667 -5.667,5.667 z"
   id="path3277"
   style="fill:url(#SVGID_4_)" />
</g>
<g
   transform="translate(-240,-130)"
   id="g3279">
	
		<linearGradient
   x1="187.78709"
   y1="586.1123"
   x2="192.21719"
   y2="596.54889"
   id="SVGID_5_"
   gradientUnits="userSpaceOnUse"
   gradientTransform="matrix(1,0,0,-1,116,787)">
		<stop
   id="stop3282"
   style="stop-color:#7e8083;stop-opacity:1"
   offset="0" />
		<stop
   id="stop3284"
   style="stop-color:#e9e9ea;stop-opacity:1"
   offset="0.98159999" />
	</linearGradient>
	<path
   d="m 306.003,190.001 c -3.13,0 -5.667,2.537 -5.667,5.667 0,3.13 2.537,5.667 5.667,5.667 3.13,0 5.667,-2.537 5.667,-5.667 0,-3.13 -2.537,-5.667 -5.667,-5.667 z m 0,10.833 c -2.849,0 -5.167,-2.317 -5.167,-5.167 0,-2.849 2.318,-5.167 5.167,-5.167 2.849,0 5.167,2.318 5.167,5.167 0,2.85 -2.318,5.167 -5.167,5.167 z"
   id="path3286"
   style="fill:url(#SVGID_5_)" />
</g>
</svg>